M48
; DRILL file {KiCad (7.0.0)} date Sun Apr 23 17:01:30 2023
; FORMAT={-:-/ absolute / metric / decimal}
; #@! TF.CreationDate,2023-04-23T17:01:30-07:00
; #@! TF.GenerationSoftware,Kicad,Pcbnew,(7.0.0)
; #@! TF.FileFunction,Plated,1,2,PTH
FMAT,2
METRIC
; #@! TA.AperFunction,Plated,PTH,ViaDrill
T1C0.300
; #@! TA.AperFunction,Plated,PTH,ViaDrill
T2C0.500
; #@! TA.AperFunction,Plated,PTH,ComponentDrill
T3C0.600
; #@! TA.AperFunction,Plated,PTH,ComponentDrill
T4C1.000
; #@! TA.AperFunction,Plated,PTH,ComponentDrill
T5C1.500
%
G90
G05
T1
X134.35Y-97.575
X134.35Y-107.25
X137.8Y-76.45
X137.95Y-78.0
X138.3Y-97.6
X138.453Y-105.75
X138.475Y-102.95
X139.15Y-111.55
X139.21Y-100.72
X139.62Y-62.605
X139.62Y-65.405
X140.825Y-102.075
X140.9Y-105.75
X141.38Y-87.83
X141.525Y-81.95
X141.69Y-76.45
X141.725Y-96.05
X141.9Y-102.925
X142.25Y-78.825
X142.42Y-62.605
X142.42Y-65.405
X142.65Y-104.55
X142.65Y-105.4
X143.1Y-103.8
X143.59Y-93.3
X143.9Y-103.8
X144.45Y-107.05
X144.7Y-103.8
X145.3Y-102.25
X146.35Y-81.0
X146.9Y-63.9
X147.1Y-111.55
X147.325Y-106.05
X147.8Y-99.275
X148.4Y-98.625
X148.55Y-63.9
X148.9Y-81.1
X148.999Y-100.297
X149.425Y-106.05
X149.6Y-99.075
X150.15Y-63.9
X150.25Y-76.75
X151.0Y-98.65
X151.5Y-103.8
X151.8Y-63.9
X152.3Y-103.8
X153.1Y-103.8
X153.4Y-104.6
X153.4Y-105.45
X153.4Y-106.3
X153.45Y-63.9
X153.9Y-97.45
X155.05Y-63.9
X155.075Y-102.275
X155.425Y-100.025
X155.95Y-111.55
X156.65Y-63.9
X158.1Y-63.9
X159.2Y-102.125
X159.75Y-62.249
X161.61Y-62.6
X161.61Y-65.4
X164.0Y-96.8
X164.41Y-62.6
X164.41Y-65.4
X164.5Y-111.55
X168.12Y-95.32
X169.7Y-67.65
X169.7Y-72.3
X169.7Y-84.9
X169.7Y-91.9
X169.7Y-107.3
X169.72Y-100.07
X169.75Y-78.29
T2
X138.98Y-70.48
X138.98Y-73.03
X140.18Y-70.48
X140.18Y-73.03
X141.38Y-70.48
X141.38Y-73.03
X142.58Y-70.48
X142.58Y-73.03
X143.78Y-70.48
X143.78Y-73.03
X144.98Y-70.48
X144.98Y-73.03
X146.18Y-70.48
X146.18Y-73.03
X147.38Y-70.48
X147.38Y-73.03
X147.9Y-83.275
X147.9Y-85.675
X147.9Y-88.075
X147.9Y-90.475
X147.9Y-92.89
X147.9Y-95.29
X150.6Y-84.3
X150.6Y-86.7
X150.6Y-89.1
X150.6Y-91.515
X153.19Y-73.14
X154.4Y-73.14
X155.6Y-73.14
X156.7Y-74.55
X156.7Y-75.75
X156.7Y-77.0
X156.7Y-78.2
X156.7Y-79.4
X156.7Y-80.6
X156.7Y-81.8
X156.8Y-73.14
X157.95Y-74.55
X157.95Y-75.75
X157.95Y-81.8
X158.0Y-73.14
X159.2Y-73.14
X159.65Y-74.55
X159.65Y-75.75
X159.65Y-76.95
X159.65Y-78.15
X159.65Y-79.35
X159.65Y-80.55
X160.4Y-73.14
X160.85Y-74.55
X160.85Y-75.75
X161.6Y-73.14
X162.05Y-74.55
X162.05Y-75.75
X162.4Y-76.9
X162.4Y-78.1
X162.4Y-80.2
X163.15Y-79.15
X163.9Y-78.1
X163.9Y-80.2
T4
X136.0Y-71.225
X136.0Y-73.765
X138.0Y-94.8
X140.5Y-94.8
X143.0Y-94.8
T5
X141.0Y-64.0
X163.0Y-64.0
T3
X143.78Y-104.945G85X143.78Y-106.045
G05
X143.78Y-109.275G85X143.78Y-110.075
G05
X152.42Y-104.945G85X152.42Y-106.045
G05
X152.42Y-109.275G85X152.42Y-110.075
G05
T4
X159.5Y-98.85G85X162.1Y-98.85
G05
X159.7Y-105.15G85X161.9Y-105.15
G05
X165.6Y-100.65G85X165.6Y-102.85
G05
T0
M30
