%TF.GenerationSoftware,KiCad,Pcbnew,(7.0.0)*%
%TF.CreationDate,2023-04-23T17:01:31-07:00*%
%TF.ProjectId,boostdriver-al8853,626f6f73-7464-4726-9976-65722d616c38,1*%
%TF.SameCoordinates,Original*%
%TF.FileFunction,Drillmap*%
%TF.FilePolarity,Positive*%
%FSLAX45Y45*%
G04 Gerber Fmt 4.5, Leading zero omitted, Abs format (unit mm)*
G04 Created by KiCad (PCBNEW (7.0.0)) date 2023-04-23 17:01:31*
%MOMM*%
%LPD*%
G01*
G04 APERTURE LIST*
%ADD10C,0.100000*%
%ADD11C,0.200000*%
%ADD12C,0.030000*%
%ADD13C,0.050000*%
%ADD14C,0.060000*%
%ADD15C,0.150000*%
G04 APERTURE END LIST*
D10*
X13600000Y-6175000D02*
G75*
G03*
X13375000Y-6400000I0J-225000D01*
G01*
X17025000Y-11000000D02*
X17025000Y-6400000D01*
X17025000Y-6400000D02*
G75*
G03*
X16800000Y-6175000I-225000J0D01*
G01*
X16800000Y-11225000D02*
X13600000Y-11225000D01*
X16800000Y-11225000D02*
G75*
G03*
X17025000Y-11000000I0J225000D01*
G01*
X16800000Y-6175000D02*
X13600000Y-6175000D01*
X13375000Y-11000000D02*
G75*
G03*
X13600000Y-11225000I225000J0D01*
G01*
X13375000Y-11000000D02*
X13375000Y-6400000D01*
D11*
D12*
X13420000Y-9742500D02*
X13450000Y-9772500D01*
X13450000Y-9742500D02*
X13420000Y-9772500D01*
X13420000Y-10710000D02*
X13450000Y-10740000D01*
X13450000Y-10710000D02*
X13420000Y-10740000D01*
X13765000Y-7630000D02*
X13795000Y-7660000D01*
X13795000Y-7630000D02*
X13765000Y-7660000D01*
X13780000Y-7785000D02*
X13810000Y-7815000D01*
X13810000Y-7785000D02*
X13780000Y-7815000D01*
X13815000Y-9745000D02*
X13845000Y-9775000D01*
X13845000Y-9745000D02*
X13815000Y-9775000D01*
X13830254Y-10560000D02*
X13860254Y-10590000D01*
X13860254Y-10560000D02*
X13830254Y-10590000D01*
X13832500Y-10280000D02*
X13862500Y-10310000D01*
X13862500Y-10280000D02*
X13832500Y-10310000D01*
X13900000Y-11140000D02*
X13930000Y-11170000D01*
X13930000Y-11140000D02*
X13900000Y-11170000D01*
X13906000Y-10057000D02*
X13936000Y-10087000D01*
X13936000Y-10057000D02*
X13906000Y-10087000D01*
X13947000Y-6245500D02*
X13977000Y-6275500D01*
X13977000Y-6245500D02*
X13947000Y-6275500D01*
X13947000Y-6525500D02*
X13977000Y-6555500D01*
X13977000Y-6525500D02*
X13947000Y-6555500D01*
X14067500Y-10192500D02*
X14097500Y-10222500D01*
X14097500Y-10192500D02*
X14067500Y-10222500D01*
X14075000Y-10560000D02*
X14105000Y-10590000D01*
X14105000Y-10560000D02*
X14075000Y-10590000D01*
X14123000Y-8768000D02*
X14153000Y-8798000D01*
X14153000Y-8768000D02*
X14123000Y-8798000D01*
X14137500Y-8180000D02*
X14167500Y-8210000D01*
X14167500Y-8180000D02*
X14137500Y-8210000D01*
X14154000Y-7630000D02*
X14184000Y-7660000D01*
X14184000Y-7630000D02*
X14154000Y-7660000D01*
X14157500Y-9590000D02*
X14187500Y-9620000D01*
X14187500Y-9590000D02*
X14157500Y-9620000D01*
X14175000Y-10277500D02*
X14205000Y-10307500D01*
X14205000Y-10277500D02*
X14175000Y-10307500D01*
X14210000Y-7867500D02*
X14240000Y-7897500D01*
X14240000Y-7867500D02*
X14210000Y-7897500D01*
X14227000Y-6245500D02*
X14257000Y-6275500D01*
X14257000Y-6245500D02*
X14227000Y-6275500D01*
X14227000Y-6525500D02*
X14257000Y-6555500D01*
X14257000Y-6525500D02*
X14227000Y-6555500D01*
X14250000Y-10440000D02*
X14280000Y-10470000D01*
X14280000Y-10440000D02*
X14250000Y-10470000D01*
X14250000Y-10525000D02*
X14280000Y-10555000D01*
X14280000Y-10525000D02*
X14250000Y-10555000D01*
X14295000Y-10365000D02*
X14325000Y-10395000D01*
X14325000Y-10365000D02*
X14295000Y-10395000D01*
X14344000Y-9315000D02*
X14374000Y-9345000D01*
X14374000Y-9315000D02*
X14344000Y-9345000D01*
X14375000Y-10365000D02*
X14405000Y-10395000D01*
X14405000Y-10365000D02*
X14375000Y-10395000D01*
X14430000Y-10690000D02*
X14460000Y-10720000D01*
X14460000Y-10690000D02*
X14430000Y-10720000D01*
X14455000Y-10365000D02*
X14485000Y-10395000D01*
X14485000Y-10365000D02*
X14455000Y-10395000D01*
X14515000Y-10210000D02*
X14545000Y-10240000D01*
X14545000Y-10210000D02*
X14515000Y-10240000D01*
X14620000Y-8085000D02*
X14650000Y-8115000D01*
X14650000Y-8085000D02*
X14620000Y-8115000D01*
X14675000Y-6375000D02*
X14705000Y-6405000D01*
X14705000Y-6375000D02*
X14675000Y-6405000D01*
X14695000Y-11140000D02*
X14725000Y-11170000D01*
X14725000Y-11140000D02*
X14695000Y-11170000D01*
X14717500Y-10590000D02*
X14747500Y-10620000D01*
X14747500Y-10590000D02*
X14717500Y-10620000D01*
X14765000Y-9912500D02*
X14795000Y-9942500D01*
X14795000Y-9912500D02*
X14765000Y-9942500D01*
X14825000Y-9847500D02*
X14855000Y-9877500D01*
X14855000Y-9847500D02*
X14825000Y-9877500D01*
X14840000Y-6375000D02*
X14870000Y-6405000D01*
X14870000Y-6375000D02*
X14840000Y-6405000D01*
X14875000Y-8095000D02*
X14905000Y-8125000D01*
X14905000Y-8095000D02*
X14875000Y-8125000D01*
X14884900Y-10014682D02*
X14914900Y-10044682D01*
X14914900Y-10014682D02*
X14884900Y-10044682D01*
X14927500Y-10590000D02*
X14957500Y-10620000D01*
X14957500Y-10590000D02*
X14927500Y-10620000D01*
X14944950Y-9892500D02*
X14974950Y-9922500D01*
X14974950Y-9892500D02*
X14944950Y-9922500D01*
X15000000Y-6375000D02*
X15030000Y-6405000D01*
X15030000Y-6375000D02*
X15000000Y-6405000D01*
X15010000Y-7660000D02*
X15040000Y-7690000D01*
X15040000Y-7660000D02*
X15010000Y-7690000D01*
X15085000Y-9850000D02*
X15115000Y-9880000D01*
X15115000Y-9850000D02*
X15085000Y-9880000D01*
X15135000Y-10365000D02*
X15165000Y-10395000D01*
X15165000Y-10365000D02*
X15135000Y-10395000D01*
X15165000Y-6375000D02*
X15195000Y-6405000D01*
X15195000Y-6375000D02*
X15165000Y-6405000D01*
X15215000Y-10365000D02*
X15245000Y-10395000D01*
X15245000Y-10365000D02*
X15215000Y-10395000D01*
X15295000Y-10365000D02*
X15325000Y-10395000D01*
X15325000Y-10365000D02*
X15295000Y-10395000D01*
X15325000Y-10445000D02*
X15355000Y-10475000D01*
X15355000Y-10445000D02*
X15325000Y-10475000D01*
X15325000Y-10530000D02*
X15355000Y-10560000D01*
X15355000Y-10530000D02*
X15325000Y-10560000D01*
X15325000Y-10615000D02*
X15355000Y-10645000D01*
X15355000Y-10615000D02*
X15325000Y-10645000D01*
X15330000Y-6375000D02*
X15360000Y-6405000D01*
X15360000Y-6375000D02*
X15330000Y-6405000D01*
X15375000Y-9730000D02*
X15405000Y-9760000D01*
X15405000Y-9730000D02*
X15375000Y-9760000D01*
X15490000Y-6375000D02*
X15520000Y-6405000D01*
X15520000Y-6375000D02*
X15490000Y-6405000D01*
X15492500Y-10212500D02*
X15522500Y-10242500D01*
X15522500Y-10212500D02*
X15492500Y-10242500D01*
X15527500Y-9987500D02*
X15557500Y-10017500D01*
X15557500Y-9987500D02*
X15527500Y-10017500D01*
X15580000Y-11140000D02*
X15610000Y-11170000D01*
X15610000Y-11140000D02*
X15580000Y-11170000D01*
X15650000Y-6375000D02*
X15680000Y-6405000D01*
X15680000Y-6375000D02*
X15650000Y-6405000D01*
X15795000Y-6375000D02*
X15825000Y-6405000D01*
X15825000Y-6375000D02*
X15795000Y-6405000D01*
X15905000Y-10197500D02*
X15935000Y-10227500D01*
X15935000Y-10197500D02*
X15905000Y-10227500D01*
X15960000Y-6209950D02*
X15990000Y-6239950D01*
X15990000Y-6209950D02*
X15960000Y-6239950D01*
X16146000Y-6245000D02*
X16176000Y-6275000D01*
X16176000Y-6245000D02*
X16146000Y-6275000D01*
X16146000Y-6525000D02*
X16176000Y-6555000D01*
X16176000Y-6525000D02*
X16146000Y-6555000D01*
X16385000Y-9665000D02*
X16415000Y-9695000D01*
X16415000Y-9665000D02*
X16385000Y-9695000D01*
X16426000Y-6245000D02*
X16456000Y-6275000D01*
X16456000Y-6245000D02*
X16426000Y-6275000D01*
X16426000Y-6525000D02*
X16456000Y-6555000D01*
X16456000Y-6525000D02*
X16426000Y-6555000D01*
X16435000Y-11140000D02*
X16465000Y-11170000D01*
X16465000Y-11140000D02*
X16435000Y-11170000D01*
X16797000Y-9517000D02*
X16827000Y-9547000D01*
X16827000Y-9517000D02*
X16797000Y-9547000D01*
X16955000Y-6750000D02*
X16985000Y-6780000D01*
X16985000Y-6750000D02*
X16955000Y-6780000D01*
X16955000Y-7215000D02*
X16985000Y-7245000D01*
X16985000Y-7215000D02*
X16955000Y-7245000D01*
X16955000Y-8475000D02*
X16985000Y-8505000D01*
X16985000Y-8475000D02*
X16955000Y-8505000D01*
X16955000Y-9175000D02*
X16985000Y-9205000D01*
X16985000Y-9175000D02*
X16955000Y-9205000D01*
X16955000Y-10715000D02*
X16985000Y-10745000D01*
X16985000Y-10715000D02*
X16955000Y-10745000D01*
X16957000Y-9992000D02*
X16987000Y-10022000D01*
X16987000Y-9992000D02*
X16957000Y-10022000D01*
X16960050Y-7814000D02*
X16990050Y-7844000D01*
X16990050Y-7814000D02*
X16960050Y-7844000D01*
D13*
X13923000Y-7048000D02*
G75*
G03*
X13923000Y-7048000I-25000J0D01*
G01*
X13923000Y-7303000D02*
G75*
G03*
X13923000Y-7303000I-25000J0D01*
G01*
X14043000Y-7048000D02*
G75*
G03*
X14043000Y-7048000I-25000J0D01*
G01*
X14043000Y-7303000D02*
G75*
G03*
X14043000Y-7303000I-25000J0D01*
G01*
X14163000Y-7048000D02*
G75*
G03*
X14163000Y-7048000I-25000J0D01*
G01*
X14163000Y-7303000D02*
G75*
G03*
X14163000Y-7303000I-25000J0D01*
G01*
X14283000Y-7048000D02*
G75*
G03*
X14283000Y-7048000I-25000J0D01*
G01*
X14283000Y-7303000D02*
G75*
G03*
X14283000Y-7303000I-25000J0D01*
G01*
X14403000Y-7048000D02*
G75*
G03*
X14403000Y-7048000I-25000J0D01*
G01*
X14403000Y-7303000D02*
G75*
G03*
X14403000Y-7303000I-25000J0D01*
G01*
X14523000Y-7048000D02*
G75*
G03*
X14523000Y-7048000I-25000J0D01*
G01*
X14523000Y-7303000D02*
G75*
G03*
X14523000Y-7303000I-25000J0D01*
G01*
X14643000Y-7048000D02*
G75*
G03*
X14643000Y-7048000I-25000J0D01*
G01*
X14643000Y-7303000D02*
G75*
G03*
X14643000Y-7303000I-25000J0D01*
G01*
X14763000Y-7048000D02*
G75*
G03*
X14763000Y-7048000I-25000J0D01*
G01*
X14763000Y-7303000D02*
G75*
G03*
X14763000Y-7303000I-25000J0D01*
G01*
X14815000Y-8327500D02*
G75*
G03*
X14815000Y-8327500I-25000J0D01*
G01*
X14815000Y-8567500D02*
G75*
G03*
X14815000Y-8567500I-25000J0D01*
G01*
X14815000Y-8807500D02*
G75*
G03*
X14815000Y-8807500I-25000J0D01*
G01*
X14815000Y-9047500D02*
G75*
G03*
X14815000Y-9047500I-25000J0D01*
G01*
X14815000Y-9289000D02*
G75*
G03*
X14815000Y-9289000I-25000J0D01*
G01*
X14815000Y-9529000D02*
G75*
G03*
X14815000Y-9529000I-25000J0D01*
G01*
X15085000Y-8430000D02*
G75*
G03*
X15085000Y-8430000I-25000J0D01*
G01*
X15085000Y-8670000D02*
G75*
G03*
X15085000Y-8670000I-25000J0D01*
G01*
X15085000Y-8910000D02*
G75*
G03*
X15085000Y-8910000I-25000J0D01*
G01*
X15085000Y-9151500D02*
G75*
G03*
X15085000Y-9151500I-25000J0D01*
G01*
X15344000Y-7314000D02*
G75*
G03*
X15344000Y-7314000I-25000J0D01*
G01*
X15465000Y-7314000D02*
G75*
G03*
X15465000Y-7314000I-25000J0D01*
G01*
X15585000Y-7314000D02*
G75*
G03*
X15585000Y-7314000I-25000J0D01*
G01*
X15695000Y-7455000D02*
G75*
G03*
X15695000Y-7455000I-25000J0D01*
G01*
X15695000Y-7575000D02*
G75*
G03*
X15695000Y-7575000I-25000J0D01*
G01*
X15695000Y-7700000D02*
G75*
G03*
X15695000Y-7700000I-25000J0D01*
G01*
X15695000Y-7820000D02*
G75*
G03*
X15695000Y-7820000I-25000J0D01*
G01*
X15695000Y-7940000D02*
G75*
G03*
X15695000Y-7940000I-25000J0D01*
G01*
X15695000Y-8060000D02*
G75*
G03*
X15695000Y-8060000I-25000J0D01*
G01*
X15695000Y-8180000D02*
G75*
G03*
X15695000Y-8180000I-25000J0D01*
G01*
X15705000Y-7314000D02*
G75*
G03*
X15705000Y-7314000I-25000J0D01*
G01*
X15820000Y-7455000D02*
G75*
G03*
X15820000Y-7455000I-25000J0D01*
G01*
X15820000Y-7575000D02*
G75*
G03*
X15820000Y-7575000I-25000J0D01*
G01*
X15820000Y-8180000D02*
G75*
G03*
X15820000Y-8180000I-25000J0D01*
G01*
X15825000Y-7314000D02*
G75*
G03*
X15825000Y-7314000I-25000J0D01*
G01*
X15945000Y-7314000D02*
G75*
G03*
X15945000Y-7314000I-25000J0D01*
G01*
X15990000Y-7455000D02*
G75*
G03*
X15990000Y-7455000I-25000J0D01*
G01*
X15990000Y-7575000D02*
G75*
G03*
X15990000Y-7575000I-25000J0D01*
G01*
X15990000Y-7695000D02*
G75*
G03*
X15990000Y-7695000I-25000J0D01*
G01*
X15990000Y-7815000D02*
G75*
G03*
X15990000Y-7815000I-25000J0D01*
G01*
X15990000Y-7935000D02*
G75*
G03*
X15990000Y-7935000I-25000J0D01*
G01*
X15990000Y-8055000D02*
G75*
G03*
X15990000Y-8055000I-25000J0D01*
G01*
X16065000Y-7314000D02*
G75*
G03*
X16065000Y-7314000I-25000J0D01*
G01*
X16110000Y-7455000D02*
G75*
G03*
X16110000Y-7455000I-25000J0D01*
G01*
X16110000Y-7575000D02*
G75*
G03*
X16110000Y-7575000I-25000J0D01*
G01*
X16185000Y-7314000D02*
G75*
G03*
X16185000Y-7314000I-25000J0D01*
G01*
X16230000Y-7455000D02*
G75*
G03*
X16230000Y-7455000I-25000J0D01*
G01*
X16230000Y-7575000D02*
G75*
G03*
X16230000Y-7575000I-25000J0D01*
G01*
X16265000Y-7690000D02*
G75*
G03*
X16265000Y-7690000I-25000J0D01*
G01*
X16265000Y-7810000D02*
G75*
G03*
X16265000Y-7810000I-25000J0D01*
G01*
X16265000Y-8020000D02*
G75*
G03*
X16265000Y-8020000I-25000J0D01*
G01*
X16340000Y-7915000D02*
G75*
G03*
X16340000Y-7915000I-25000J0D01*
G01*
X16415000Y-7810000D02*
G75*
G03*
X16415000Y-7810000I-25000J0D01*
G01*
X16415000Y-8020000D02*
G75*
G03*
X16415000Y-8020000I-25000J0D01*
G01*
D14*
X14378000Y-10519500D02*
X14378000Y-10579500D01*
X14348000Y-10549500D02*
X14408000Y-10549500D01*
D11*
X14348000Y-10494500D02*
X14348000Y-10604500D01*
X14348000Y-10604500D02*
G75*
G03*
X14408000Y-10604500I30000J0D01*
G01*
X14408000Y-10604500D02*
X14408000Y-10494500D01*
X14408000Y-10494500D02*
G75*
G03*
X14348000Y-10494500I-30000J0D01*
G01*
D14*
X14378000Y-10937500D02*
X14378000Y-10997500D01*
X14348000Y-10967500D02*
X14408000Y-10967500D01*
D11*
X14348000Y-10927500D02*
X14348000Y-11007500D01*
X14348000Y-11007500D02*
G75*
G03*
X14408000Y-11007500I30000J0D01*
G01*
X14408000Y-11007500D02*
X14408000Y-10927500D01*
X14408000Y-10927500D02*
G75*
G03*
X14348000Y-10927500I-30000J0D01*
G01*
D14*
X15242000Y-10519500D02*
X15242000Y-10579500D01*
X15212000Y-10549500D02*
X15272000Y-10549500D01*
D11*
X15212000Y-10494500D02*
X15212000Y-10604500D01*
X15212000Y-10604500D02*
G75*
G03*
X15272000Y-10604500I30000J0D01*
G01*
X15272000Y-10604500D02*
X15272000Y-10494500D01*
X15272000Y-10494500D02*
G75*
G03*
X15212000Y-10494500I-30000J0D01*
G01*
D14*
X15242000Y-10937500D02*
X15242000Y-10997500D01*
X15212000Y-10967500D02*
X15272000Y-10967500D01*
D11*
X15212000Y-10927500D02*
X15212000Y-11007500D01*
X15212000Y-11007500D02*
G75*
G03*
X15272000Y-11007500I30000J0D01*
G01*
X15272000Y-11007500D02*
X15272000Y-10927500D01*
X15272000Y-10927500D02*
G75*
G03*
X15212000Y-10927500I-30000J0D01*
G01*
D10*
X13635356Y-7157856D02*
X13635356Y-7087144D01*
X13564644Y-7087144D01*
X13564644Y-7157856D01*
X13635356Y-7157856D01*
X13635356Y-7411856D02*
X13635356Y-7341144D01*
X13564644Y-7341144D01*
X13564644Y-7411856D01*
X13635356Y-7411856D01*
X13835356Y-9515356D02*
X13835356Y-9444644D01*
X13764644Y-9444644D01*
X13764644Y-9515356D01*
X13835356Y-9515356D01*
X14085356Y-9515356D02*
X14085356Y-9444644D01*
X14014644Y-9444644D01*
X14014644Y-9515356D01*
X14085356Y-9515356D01*
X14335356Y-9515356D02*
X14335356Y-9444644D01*
X14264644Y-9444644D01*
X14264644Y-9515356D01*
X14335356Y-9515356D01*
X16115356Y-9920356D02*
X16115356Y-9849644D01*
X16044644Y-9849644D01*
X16044644Y-9920356D01*
X16115356Y-9920356D01*
D11*
X15950000Y-9935000D02*
X16210000Y-9935000D01*
X16210000Y-9935000D02*
G75*
G03*
X16210000Y-9835000I0J50000D01*
G01*
X16210000Y-9835000D02*
X15950000Y-9835000D01*
X15950000Y-9835000D02*
G75*
G03*
X15950000Y-9935000I0J-50000D01*
G01*
D10*
X16115356Y-10550356D02*
X16115356Y-10479644D01*
X16044644Y-10479644D01*
X16044644Y-10550356D01*
X16115356Y-10550356D01*
D11*
X15970000Y-10565000D02*
X16190000Y-10565000D01*
X16190000Y-10565000D02*
G75*
G03*
X16190000Y-10465000I0J50000D01*
G01*
X16190000Y-10465000D02*
X15970000Y-10465000D01*
X15970000Y-10465000D02*
G75*
G03*
X15970000Y-10565000I0J-50000D01*
G01*
D10*
X16595356Y-10210356D02*
X16595356Y-10139644D01*
X16524644Y-10139644D01*
X16524644Y-10210356D01*
X16595356Y-10210356D01*
D11*
X16510000Y-10065000D02*
X16510000Y-10285000D01*
X16510000Y-10285000D02*
G75*
G03*
X16610000Y-10285000I50000J0D01*
G01*
X16610000Y-10285000D02*
X16610000Y-10065000D01*
X16610000Y-10065000D02*
G75*
G03*
X16510000Y-10065000I-50000J0D01*
G01*
D15*
X14100000Y-6475000D02*
X14175000Y-6400000D01*
X14100000Y-6325000D01*
X14025000Y-6400000D01*
X14100000Y-6475000D01*
X16300000Y-6475000D02*
X16375000Y-6400000D01*
X16300000Y-6325000D01*
X16225000Y-6400000D01*
X16300000Y-6475000D01*
D11*
X13617619Y-11523476D02*
X13617619Y-11323476D01*
X13617619Y-11323476D02*
X13665238Y-11323476D01*
X13665238Y-11323476D02*
X13693809Y-11333000D01*
X13693809Y-11333000D02*
X13712857Y-11352048D01*
X13712857Y-11352048D02*
X13722381Y-11371095D01*
X13722381Y-11371095D02*
X13731905Y-11409190D01*
X13731905Y-11409190D02*
X13731905Y-11437762D01*
X13731905Y-11437762D02*
X13722381Y-11475857D01*
X13722381Y-11475857D02*
X13712857Y-11494905D01*
X13712857Y-11494905D02*
X13693809Y-11513952D01*
X13693809Y-11513952D02*
X13665238Y-11523476D01*
X13665238Y-11523476D02*
X13617619Y-11523476D01*
X13817619Y-11523476D02*
X13817619Y-11390143D01*
X13817619Y-11428238D02*
X13827143Y-11409190D01*
X13827143Y-11409190D02*
X13836667Y-11399667D01*
X13836667Y-11399667D02*
X13855714Y-11390143D01*
X13855714Y-11390143D02*
X13874762Y-11390143D01*
X13941428Y-11523476D02*
X13941428Y-11390143D01*
X13941428Y-11323476D02*
X13931905Y-11333000D01*
X13931905Y-11333000D02*
X13941428Y-11342524D01*
X13941428Y-11342524D02*
X13950952Y-11333000D01*
X13950952Y-11333000D02*
X13941428Y-11323476D01*
X13941428Y-11323476D02*
X13941428Y-11342524D01*
X14065238Y-11523476D02*
X14046190Y-11513952D01*
X14046190Y-11513952D02*
X14036667Y-11494905D01*
X14036667Y-11494905D02*
X14036667Y-11323476D01*
X14170000Y-11523476D02*
X14150952Y-11513952D01*
X14150952Y-11513952D02*
X14141428Y-11494905D01*
X14141428Y-11494905D02*
X14141428Y-11323476D01*
X14366190Y-11523476D02*
X14366190Y-11323476D01*
X14366190Y-11323476D02*
X14432857Y-11466333D01*
X14432857Y-11466333D02*
X14499524Y-11323476D01*
X14499524Y-11323476D02*
X14499524Y-11523476D01*
X14680476Y-11523476D02*
X14680476Y-11418714D01*
X14680476Y-11418714D02*
X14670952Y-11399667D01*
X14670952Y-11399667D02*
X14651905Y-11390143D01*
X14651905Y-11390143D02*
X14613809Y-11390143D01*
X14613809Y-11390143D02*
X14594762Y-11399667D01*
X14680476Y-11513952D02*
X14661428Y-11523476D01*
X14661428Y-11523476D02*
X14613809Y-11523476D01*
X14613809Y-11523476D02*
X14594762Y-11513952D01*
X14594762Y-11513952D02*
X14585238Y-11494905D01*
X14585238Y-11494905D02*
X14585238Y-11475857D01*
X14585238Y-11475857D02*
X14594762Y-11456809D01*
X14594762Y-11456809D02*
X14613809Y-11447286D01*
X14613809Y-11447286D02*
X14661428Y-11447286D01*
X14661428Y-11447286D02*
X14680476Y-11437762D01*
X14775714Y-11390143D02*
X14775714Y-11590143D01*
X14775714Y-11399667D02*
X14794762Y-11390143D01*
X14794762Y-11390143D02*
X14832857Y-11390143D01*
X14832857Y-11390143D02*
X14851905Y-11399667D01*
X14851905Y-11399667D02*
X14861428Y-11409190D01*
X14861428Y-11409190D02*
X14870952Y-11428238D01*
X14870952Y-11428238D02*
X14870952Y-11485381D01*
X14870952Y-11485381D02*
X14861428Y-11504428D01*
X14861428Y-11504428D02*
X14851905Y-11513952D01*
X14851905Y-11513952D02*
X14832857Y-11523476D01*
X14832857Y-11523476D02*
X14794762Y-11523476D01*
X14794762Y-11523476D02*
X14775714Y-11513952D01*
X14956667Y-11504428D02*
X14966190Y-11513952D01*
X14966190Y-11513952D02*
X14956667Y-11523476D01*
X14956667Y-11523476D02*
X14947143Y-11513952D01*
X14947143Y-11513952D02*
X14956667Y-11504428D01*
X14956667Y-11504428D02*
X14956667Y-11523476D01*
X14956667Y-11399667D02*
X14966190Y-11409190D01*
X14966190Y-11409190D02*
X14956667Y-11418714D01*
X14956667Y-11418714D02*
X14947143Y-11409190D01*
X14947143Y-11409190D02*
X14956667Y-11399667D01*
X14956667Y-11399667D02*
X14956667Y-11418714D01*
D12*
X13340000Y-11855000D02*
X13370000Y-11885000D01*
X13370000Y-11855000D02*
X13340000Y-11885000D01*
D11*
X13655714Y-11743476D02*
X13674762Y-11743476D01*
X13674762Y-11743476D02*
X13693809Y-11753000D01*
X13693809Y-11753000D02*
X13703333Y-11762524D01*
X13703333Y-11762524D02*
X13712857Y-11781571D01*
X13712857Y-11781571D02*
X13722381Y-11819667D01*
X13722381Y-11819667D02*
X13722381Y-11867286D01*
X13722381Y-11867286D02*
X13712857Y-11905381D01*
X13712857Y-11905381D02*
X13703333Y-11924428D01*
X13703333Y-11924428D02*
X13693809Y-11933952D01*
X13693809Y-11933952D02*
X13674762Y-11943476D01*
X13674762Y-11943476D02*
X13655714Y-11943476D01*
X13655714Y-11943476D02*
X13636667Y-11933952D01*
X13636667Y-11933952D02*
X13627143Y-11924428D01*
X13627143Y-11924428D02*
X13617619Y-11905381D01*
X13617619Y-11905381D02*
X13608095Y-11867286D01*
X13608095Y-11867286D02*
X13608095Y-11819667D01*
X13608095Y-11819667D02*
X13617619Y-11781571D01*
X13617619Y-11781571D02*
X13627143Y-11762524D01*
X13627143Y-11762524D02*
X13636667Y-11753000D01*
X13636667Y-11753000D02*
X13655714Y-11743476D01*
X13808095Y-11924428D02*
X13817619Y-11933952D01*
X13817619Y-11933952D02*
X13808095Y-11943476D01*
X13808095Y-11943476D02*
X13798571Y-11933952D01*
X13798571Y-11933952D02*
X13808095Y-11924428D01*
X13808095Y-11924428D02*
X13808095Y-11943476D01*
X13884286Y-11743476D02*
X14008095Y-11743476D01*
X14008095Y-11743476D02*
X13941428Y-11819667D01*
X13941428Y-11819667D02*
X13970000Y-11819667D01*
X13970000Y-11819667D02*
X13989048Y-11829190D01*
X13989048Y-11829190D02*
X13998571Y-11838714D01*
X13998571Y-11838714D02*
X14008095Y-11857762D01*
X14008095Y-11857762D02*
X14008095Y-11905381D01*
X14008095Y-11905381D02*
X13998571Y-11924428D01*
X13998571Y-11924428D02*
X13989048Y-11933952D01*
X13989048Y-11933952D02*
X13970000Y-11943476D01*
X13970000Y-11943476D02*
X13912857Y-11943476D01*
X13912857Y-11943476D02*
X13893809Y-11933952D01*
X13893809Y-11933952D02*
X13884286Y-11924428D01*
X14131905Y-11743476D02*
X14150952Y-11743476D01*
X14150952Y-11743476D02*
X14170000Y-11753000D01*
X14170000Y-11753000D02*
X14179524Y-11762524D01*
X14179524Y-11762524D02*
X14189048Y-11781571D01*
X14189048Y-11781571D02*
X14198571Y-11819667D01*
X14198571Y-11819667D02*
X14198571Y-11867286D01*
X14198571Y-11867286D02*
X14189048Y-11905381D01*
X14189048Y-11905381D02*
X14179524Y-11924428D01*
X14179524Y-11924428D02*
X14170000Y-11933952D01*
X14170000Y-11933952D02*
X14150952Y-11943476D01*
X14150952Y-11943476D02*
X14131905Y-11943476D01*
X14131905Y-11943476D02*
X14112857Y-11933952D01*
X14112857Y-11933952D02*
X14103333Y-11924428D01*
X14103333Y-11924428D02*
X14093809Y-11905381D01*
X14093809Y-11905381D02*
X14084286Y-11867286D01*
X14084286Y-11867286D02*
X14084286Y-11819667D01*
X14084286Y-11819667D02*
X14093809Y-11781571D01*
X14093809Y-11781571D02*
X14103333Y-11762524D01*
X14103333Y-11762524D02*
X14112857Y-11753000D01*
X14112857Y-11753000D02*
X14131905Y-11743476D01*
X14322381Y-11743476D02*
X14341429Y-11743476D01*
X14341429Y-11743476D02*
X14360476Y-11753000D01*
X14360476Y-11753000D02*
X14370000Y-11762524D01*
X14370000Y-11762524D02*
X14379524Y-11781571D01*
X14379524Y-11781571D02*
X14389048Y-11819667D01*
X14389048Y-11819667D02*
X14389048Y-11867286D01*
X14389048Y-11867286D02*
X14379524Y-11905381D01*
X14379524Y-11905381D02*
X14370000Y-11924428D01*
X14370000Y-11924428D02*
X14360476Y-11933952D01*
X14360476Y-11933952D02*
X14341429Y-11943476D01*
X14341429Y-11943476D02*
X14322381Y-11943476D01*
X14322381Y-11943476D02*
X14303333Y-11933952D01*
X14303333Y-11933952D02*
X14293809Y-11924428D01*
X14293809Y-11924428D02*
X14284286Y-11905381D01*
X14284286Y-11905381D02*
X14274762Y-11867286D01*
X14274762Y-11867286D02*
X14274762Y-11819667D01*
X14274762Y-11819667D02*
X14284286Y-11781571D01*
X14284286Y-11781571D02*
X14293809Y-11762524D01*
X14293809Y-11762524D02*
X14303333Y-11753000D01*
X14303333Y-11753000D02*
X14322381Y-11743476D01*
X14474762Y-11943476D02*
X14474762Y-11810143D01*
X14474762Y-11829190D02*
X14484286Y-11819667D01*
X14484286Y-11819667D02*
X14503333Y-11810143D01*
X14503333Y-11810143D02*
X14531905Y-11810143D01*
X14531905Y-11810143D02*
X14550952Y-11819667D01*
X14550952Y-11819667D02*
X14560476Y-11838714D01*
X14560476Y-11838714D02*
X14560476Y-11943476D01*
X14560476Y-11838714D02*
X14570000Y-11819667D01*
X14570000Y-11819667D02*
X14589048Y-11810143D01*
X14589048Y-11810143D02*
X14617619Y-11810143D01*
X14617619Y-11810143D02*
X14636667Y-11819667D01*
X14636667Y-11819667D02*
X14646190Y-11838714D01*
X14646190Y-11838714D02*
X14646190Y-11943476D01*
X14741429Y-11943476D02*
X14741429Y-11810143D01*
X14741429Y-11829190D02*
X14750952Y-11819667D01*
X14750952Y-11819667D02*
X14770000Y-11810143D01*
X14770000Y-11810143D02*
X14798571Y-11810143D01*
X14798571Y-11810143D02*
X14817619Y-11819667D01*
X14817619Y-11819667D02*
X14827143Y-11838714D01*
X14827143Y-11838714D02*
X14827143Y-11943476D01*
X14827143Y-11838714D02*
X14836667Y-11819667D01*
X14836667Y-11819667D02*
X14855714Y-11810143D01*
X14855714Y-11810143D02*
X14884286Y-11810143D01*
X14884286Y-11810143D02*
X14903333Y-11819667D01*
X14903333Y-11819667D02*
X14912857Y-11838714D01*
X14912857Y-11838714D02*
X14912857Y-11943476D01*
X15270952Y-11733952D02*
X15099524Y-11991095D01*
X15495714Y-11743476D02*
X15514762Y-11743476D01*
X15514762Y-11743476D02*
X15533810Y-11753000D01*
X15533810Y-11753000D02*
X15543333Y-11762524D01*
X15543333Y-11762524D02*
X15552857Y-11781571D01*
X15552857Y-11781571D02*
X15562381Y-11819667D01*
X15562381Y-11819667D02*
X15562381Y-11867286D01*
X15562381Y-11867286D02*
X15552857Y-11905381D01*
X15552857Y-11905381D02*
X15543333Y-11924428D01*
X15543333Y-11924428D02*
X15533810Y-11933952D01*
X15533810Y-11933952D02*
X15514762Y-11943476D01*
X15514762Y-11943476D02*
X15495714Y-11943476D01*
X15495714Y-11943476D02*
X15476667Y-11933952D01*
X15476667Y-11933952D02*
X15467143Y-11924428D01*
X15467143Y-11924428D02*
X15457619Y-11905381D01*
X15457619Y-11905381D02*
X15448095Y-11867286D01*
X15448095Y-11867286D02*
X15448095Y-11819667D01*
X15448095Y-11819667D02*
X15457619Y-11781571D01*
X15457619Y-11781571D02*
X15467143Y-11762524D01*
X15467143Y-11762524D02*
X15476667Y-11753000D01*
X15476667Y-11753000D02*
X15495714Y-11743476D01*
X15648095Y-11924428D02*
X15657619Y-11933952D01*
X15657619Y-11933952D02*
X15648095Y-11943476D01*
X15648095Y-11943476D02*
X15638571Y-11933952D01*
X15638571Y-11933952D02*
X15648095Y-11924428D01*
X15648095Y-11924428D02*
X15648095Y-11943476D01*
X15781429Y-11743476D02*
X15800476Y-11743476D01*
X15800476Y-11743476D02*
X15819524Y-11753000D01*
X15819524Y-11753000D02*
X15829048Y-11762524D01*
X15829048Y-11762524D02*
X15838571Y-11781571D01*
X15838571Y-11781571D02*
X15848095Y-11819667D01*
X15848095Y-11819667D02*
X15848095Y-11867286D01*
X15848095Y-11867286D02*
X15838571Y-11905381D01*
X15838571Y-11905381D02*
X15829048Y-11924428D01*
X15829048Y-11924428D02*
X15819524Y-11933952D01*
X15819524Y-11933952D02*
X15800476Y-11943476D01*
X15800476Y-11943476D02*
X15781429Y-11943476D01*
X15781429Y-11943476D02*
X15762381Y-11933952D01*
X15762381Y-11933952D02*
X15752857Y-11924428D01*
X15752857Y-11924428D02*
X15743333Y-11905381D01*
X15743333Y-11905381D02*
X15733810Y-11867286D01*
X15733810Y-11867286D02*
X15733810Y-11819667D01*
X15733810Y-11819667D02*
X15743333Y-11781571D01*
X15743333Y-11781571D02*
X15752857Y-11762524D01*
X15752857Y-11762524D02*
X15762381Y-11753000D01*
X15762381Y-11753000D02*
X15781429Y-11743476D01*
X16038571Y-11943476D02*
X15924286Y-11943476D01*
X15981429Y-11943476D02*
X15981429Y-11743476D01*
X15981429Y-11743476D02*
X15962381Y-11772048D01*
X15962381Y-11772048D02*
X15943333Y-11791095D01*
X15943333Y-11791095D02*
X15924286Y-11800619D01*
X16229048Y-11943476D02*
X16114762Y-11943476D01*
X16171905Y-11943476D02*
X16171905Y-11743476D01*
X16171905Y-11743476D02*
X16152857Y-11772048D01*
X16152857Y-11772048D02*
X16133810Y-11791095D01*
X16133810Y-11791095D02*
X16114762Y-11800619D01*
X16343333Y-11829190D02*
X16324286Y-11819667D01*
X16324286Y-11819667D02*
X16314762Y-11810143D01*
X16314762Y-11810143D02*
X16305238Y-11791095D01*
X16305238Y-11791095D02*
X16305238Y-11781571D01*
X16305238Y-11781571D02*
X16314762Y-11762524D01*
X16314762Y-11762524D02*
X16324286Y-11753000D01*
X16324286Y-11753000D02*
X16343333Y-11743476D01*
X16343333Y-11743476D02*
X16381429Y-11743476D01*
X16381429Y-11743476D02*
X16400476Y-11753000D01*
X16400476Y-11753000D02*
X16410000Y-11762524D01*
X16410000Y-11762524D02*
X16419524Y-11781571D01*
X16419524Y-11781571D02*
X16419524Y-11791095D01*
X16419524Y-11791095D02*
X16410000Y-11810143D01*
X16410000Y-11810143D02*
X16400476Y-11819667D01*
X16400476Y-11819667D02*
X16381429Y-11829190D01*
X16381429Y-11829190D02*
X16343333Y-11829190D01*
X16343333Y-11829190D02*
X16324286Y-11838714D01*
X16324286Y-11838714D02*
X16314762Y-11848238D01*
X16314762Y-11848238D02*
X16305238Y-11867286D01*
X16305238Y-11867286D02*
X16305238Y-11905381D01*
X16305238Y-11905381D02*
X16314762Y-11924428D01*
X16314762Y-11924428D02*
X16324286Y-11933952D01*
X16324286Y-11933952D02*
X16343333Y-11943476D01*
X16343333Y-11943476D02*
X16381429Y-11943476D01*
X16381429Y-11943476D02*
X16400476Y-11933952D01*
X16400476Y-11933952D02*
X16410000Y-11924428D01*
X16410000Y-11924428D02*
X16419524Y-11905381D01*
X16419524Y-11905381D02*
X16419524Y-11867286D01*
X16419524Y-11867286D02*
X16410000Y-11848238D01*
X16410000Y-11848238D02*
X16400476Y-11838714D01*
X16400476Y-11838714D02*
X16381429Y-11829190D01*
X16495714Y-11743476D02*
X16495714Y-11781571D01*
X16571905Y-11743476D02*
X16571905Y-11781571D01*
X16834762Y-12019667D02*
X16825238Y-12010143D01*
X16825238Y-12010143D02*
X16806191Y-11981571D01*
X16806191Y-11981571D02*
X16796667Y-11962524D01*
X16796667Y-11962524D02*
X16787143Y-11933952D01*
X16787143Y-11933952D02*
X16777619Y-11886333D01*
X16777619Y-11886333D02*
X16777619Y-11848238D01*
X16777619Y-11848238D02*
X16787143Y-11800619D01*
X16787143Y-11800619D02*
X16796667Y-11772048D01*
X16796667Y-11772048D02*
X16806191Y-11753000D01*
X16806191Y-11753000D02*
X16825238Y-11724428D01*
X16825238Y-11724428D02*
X16834762Y-11714905D01*
X16891905Y-11743476D02*
X17025238Y-11743476D01*
X17025238Y-11743476D02*
X16939524Y-11943476D01*
X17187143Y-11810143D02*
X17187143Y-11943476D01*
X17139524Y-11733952D02*
X17091905Y-11876809D01*
X17091905Y-11876809D02*
X17215714Y-11876809D01*
X17411905Y-11943476D02*
X17411905Y-11743476D01*
X17497619Y-11943476D02*
X17497619Y-11838714D01*
X17497619Y-11838714D02*
X17488095Y-11819667D01*
X17488095Y-11819667D02*
X17469048Y-11810143D01*
X17469048Y-11810143D02*
X17440476Y-11810143D01*
X17440476Y-11810143D02*
X17421429Y-11819667D01*
X17421429Y-11819667D02*
X17411905Y-11829190D01*
X17621429Y-11943476D02*
X17602381Y-11933952D01*
X17602381Y-11933952D02*
X17592857Y-11924428D01*
X17592857Y-11924428D02*
X17583334Y-11905381D01*
X17583334Y-11905381D02*
X17583334Y-11848238D01*
X17583334Y-11848238D02*
X17592857Y-11829190D01*
X17592857Y-11829190D02*
X17602381Y-11819667D01*
X17602381Y-11819667D02*
X17621429Y-11810143D01*
X17621429Y-11810143D02*
X17650000Y-11810143D01*
X17650000Y-11810143D02*
X17669048Y-11819667D01*
X17669048Y-11819667D02*
X17678572Y-11829190D01*
X17678572Y-11829190D02*
X17688095Y-11848238D01*
X17688095Y-11848238D02*
X17688095Y-11905381D01*
X17688095Y-11905381D02*
X17678572Y-11924428D01*
X17678572Y-11924428D02*
X17669048Y-11933952D01*
X17669048Y-11933952D02*
X17650000Y-11943476D01*
X17650000Y-11943476D02*
X17621429Y-11943476D01*
X17802381Y-11943476D02*
X17783334Y-11933952D01*
X17783334Y-11933952D02*
X17773810Y-11914905D01*
X17773810Y-11914905D02*
X17773810Y-11743476D01*
X17954762Y-11933952D02*
X17935715Y-11943476D01*
X17935715Y-11943476D02*
X17897619Y-11943476D01*
X17897619Y-11943476D02*
X17878572Y-11933952D01*
X17878572Y-11933952D02*
X17869048Y-11914905D01*
X17869048Y-11914905D02*
X17869048Y-11838714D01*
X17869048Y-11838714D02*
X17878572Y-11819667D01*
X17878572Y-11819667D02*
X17897619Y-11810143D01*
X17897619Y-11810143D02*
X17935715Y-11810143D01*
X17935715Y-11810143D02*
X17954762Y-11819667D01*
X17954762Y-11819667D02*
X17964286Y-11838714D01*
X17964286Y-11838714D02*
X17964286Y-11857762D01*
X17964286Y-11857762D02*
X17869048Y-11876809D01*
X18040476Y-11933952D02*
X18059524Y-11943476D01*
X18059524Y-11943476D02*
X18097619Y-11943476D01*
X18097619Y-11943476D02*
X18116667Y-11933952D01*
X18116667Y-11933952D02*
X18126191Y-11914905D01*
X18126191Y-11914905D02*
X18126191Y-11905381D01*
X18126191Y-11905381D02*
X18116667Y-11886333D01*
X18116667Y-11886333D02*
X18097619Y-11876809D01*
X18097619Y-11876809D02*
X18069048Y-11876809D01*
X18069048Y-11876809D02*
X18050000Y-11867286D01*
X18050000Y-11867286D02*
X18040476Y-11848238D01*
X18040476Y-11848238D02*
X18040476Y-11838714D01*
X18040476Y-11838714D02*
X18050000Y-11819667D01*
X18050000Y-11819667D02*
X18069048Y-11810143D01*
X18069048Y-11810143D02*
X18097619Y-11810143D01*
X18097619Y-11810143D02*
X18116667Y-11819667D01*
X18192857Y-12019667D02*
X18202381Y-12010143D01*
X18202381Y-12010143D02*
X18221429Y-11981571D01*
X18221429Y-11981571D02*
X18230953Y-11962524D01*
X18230953Y-11962524D02*
X18240476Y-11933952D01*
X18240476Y-11933952D02*
X18250000Y-11886333D01*
X18250000Y-11886333D02*
X18250000Y-11848238D01*
X18250000Y-11848238D02*
X18240476Y-11800619D01*
X18240476Y-11800619D02*
X18230953Y-11772048D01*
X18230953Y-11772048D02*
X18221429Y-11753000D01*
X18221429Y-11753000D02*
X18202381Y-11724428D01*
X18202381Y-11724428D02*
X18192857Y-11714905D01*
D13*
X13370000Y-12134000D02*
G75*
G03*
X13370000Y-12134000I-25000J0D01*
G01*
D11*
X13655714Y-12007476D02*
X13674762Y-12007476D01*
X13674762Y-12007476D02*
X13693809Y-12017000D01*
X13693809Y-12017000D02*
X13703333Y-12026524D01*
X13703333Y-12026524D02*
X13712857Y-12045571D01*
X13712857Y-12045571D02*
X13722381Y-12083667D01*
X13722381Y-12083667D02*
X13722381Y-12131286D01*
X13722381Y-12131286D02*
X13712857Y-12169381D01*
X13712857Y-12169381D02*
X13703333Y-12188428D01*
X13703333Y-12188428D02*
X13693809Y-12197952D01*
X13693809Y-12197952D02*
X13674762Y-12207476D01*
X13674762Y-12207476D02*
X13655714Y-12207476D01*
X13655714Y-12207476D02*
X13636667Y-12197952D01*
X13636667Y-12197952D02*
X13627143Y-12188428D01*
X13627143Y-12188428D02*
X13617619Y-12169381D01*
X13617619Y-12169381D02*
X13608095Y-12131286D01*
X13608095Y-12131286D02*
X13608095Y-12083667D01*
X13608095Y-12083667D02*
X13617619Y-12045571D01*
X13617619Y-12045571D02*
X13627143Y-12026524D01*
X13627143Y-12026524D02*
X13636667Y-12017000D01*
X13636667Y-12017000D02*
X13655714Y-12007476D01*
X13808095Y-12188428D02*
X13817619Y-12197952D01*
X13817619Y-12197952D02*
X13808095Y-12207476D01*
X13808095Y-12207476D02*
X13798571Y-12197952D01*
X13798571Y-12197952D02*
X13808095Y-12188428D01*
X13808095Y-12188428D02*
X13808095Y-12207476D01*
X13998571Y-12007476D02*
X13903333Y-12007476D01*
X13903333Y-12007476D02*
X13893809Y-12102714D01*
X13893809Y-12102714D02*
X13903333Y-12093190D01*
X13903333Y-12093190D02*
X13922381Y-12083667D01*
X13922381Y-12083667D02*
X13970000Y-12083667D01*
X13970000Y-12083667D02*
X13989048Y-12093190D01*
X13989048Y-12093190D02*
X13998571Y-12102714D01*
X13998571Y-12102714D02*
X14008095Y-12121762D01*
X14008095Y-12121762D02*
X14008095Y-12169381D01*
X14008095Y-12169381D02*
X13998571Y-12188428D01*
X13998571Y-12188428D02*
X13989048Y-12197952D01*
X13989048Y-12197952D02*
X13970000Y-12207476D01*
X13970000Y-12207476D02*
X13922381Y-12207476D01*
X13922381Y-12207476D02*
X13903333Y-12197952D01*
X13903333Y-12197952D02*
X13893809Y-12188428D01*
X14131905Y-12007476D02*
X14150952Y-12007476D01*
X14150952Y-12007476D02*
X14170000Y-12017000D01*
X14170000Y-12017000D02*
X14179524Y-12026524D01*
X14179524Y-12026524D02*
X14189048Y-12045571D01*
X14189048Y-12045571D02*
X14198571Y-12083667D01*
X14198571Y-12083667D02*
X14198571Y-12131286D01*
X14198571Y-12131286D02*
X14189048Y-12169381D01*
X14189048Y-12169381D02*
X14179524Y-12188428D01*
X14179524Y-12188428D02*
X14170000Y-12197952D01*
X14170000Y-12197952D02*
X14150952Y-12207476D01*
X14150952Y-12207476D02*
X14131905Y-12207476D01*
X14131905Y-12207476D02*
X14112857Y-12197952D01*
X14112857Y-12197952D02*
X14103333Y-12188428D01*
X14103333Y-12188428D02*
X14093809Y-12169381D01*
X14093809Y-12169381D02*
X14084286Y-12131286D01*
X14084286Y-12131286D02*
X14084286Y-12083667D01*
X14084286Y-12083667D02*
X14093809Y-12045571D01*
X14093809Y-12045571D02*
X14103333Y-12026524D01*
X14103333Y-12026524D02*
X14112857Y-12017000D01*
X14112857Y-12017000D02*
X14131905Y-12007476D01*
X14322381Y-12007476D02*
X14341429Y-12007476D01*
X14341429Y-12007476D02*
X14360476Y-12017000D01*
X14360476Y-12017000D02*
X14370000Y-12026524D01*
X14370000Y-12026524D02*
X14379524Y-12045571D01*
X14379524Y-12045571D02*
X14389048Y-12083667D01*
X14389048Y-12083667D02*
X14389048Y-12131286D01*
X14389048Y-12131286D02*
X14379524Y-12169381D01*
X14379524Y-12169381D02*
X14370000Y-12188428D01*
X14370000Y-12188428D02*
X14360476Y-12197952D01*
X14360476Y-12197952D02*
X14341429Y-12207476D01*
X14341429Y-12207476D02*
X14322381Y-12207476D01*
X14322381Y-12207476D02*
X14303333Y-12197952D01*
X14303333Y-12197952D02*
X14293809Y-12188428D01*
X14293809Y-12188428D02*
X14284286Y-12169381D01*
X14284286Y-12169381D02*
X14274762Y-12131286D01*
X14274762Y-12131286D02*
X14274762Y-12083667D01*
X14274762Y-12083667D02*
X14284286Y-12045571D01*
X14284286Y-12045571D02*
X14293809Y-12026524D01*
X14293809Y-12026524D02*
X14303333Y-12017000D01*
X14303333Y-12017000D02*
X14322381Y-12007476D01*
X14474762Y-12207476D02*
X14474762Y-12074143D01*
X14474762Y-12093190D02*
X14484286Y-12083667D01*
X14484286Y-12083667D02*
X14503333Y-12074143D01*
X14503333Y-12074143D02*
X14531905Y-12074143D01*
X14531905Y-12074143D02*
X14550952Y-12083667D01*
X14550952Y-12083667D02*
X14560476Y-12102714D01*
X14560476Y-12102714D02*
X14560476Y-12207476D01*
X14560476Y-12102714D02*
X14570000Y-12083667D01*
X14570000Y-12083667D02*
X14589048Y-12074143D01*
X14589048Y-12074143D02*
X14617619Y-12074143D01*
X14617619Y-12074143D02*
X14636667Y-12083667D01*
X14636667Y-12083667D02*
X14646190Y-12102714D01*
X14646190Y-12102714D02*
X14646190Y-12207476D01*
X14741429Y-12207476D02*
X14741429Y-12074143D01*
X14741429Y-12093190D02*
X14750952Y-12083667D01*
X14750952Y-12083667D02*
X14770000Y-12074143D01*
X14770000Y-12074143D02*
X14798571Y-12074143D01*
X14798571Y-12074143D02*
X14817619Y-12083667D01*
X14817619Y-12083667D02*
X14827143Y-12102714D01*
X14827143Y-12102714D02*
X14827143Y-12207476D01*
X14827143Y-12102714D02*
X14836667Y-12083667D01*
X14836667Y-12083667D02*
X14855714Y-12074143D01*
X14855714Y-12074143D02*
X14884286Y-12074143D01*
X14884286Y-12074143D02*
X14903333Y-12083667D01*
X14903333Y-12083667D02*
X14912857Y-12102714D01*
X14912857Y-12102714D02*
X14912857Y-12207476D01*
X15270952Y-11997952D02*
X15099524Y-12255095D01*
X15495714Y-12007476D02*
X15514762Y-12007476D01*
X15514762Y-12007476D02*
X15533810Y-12017000D01*
X15533810Y-12017000D02*
X15543333Y-12026524D01*
X15543333Y-12026524D02*
X15552857Y-12045571D01*
X15552857Y-12045571D02*
X15562381Y-12083667D01*
X15562381Y-12083667D02*
X15562381Y-12131286D01*
X15562381Y-12131286D02*
X15552857Y-12169381D01*
X15552857Y-12169381D02*
X15543333Y-12188428D01*
X15543333Y-12188428D02*
X15533810Y-12197952D01*
X15533810Y-12197952D02*
X15514762Y-12207476D01*
X15514762Y-12207476D02*
X15495714Y-12207476D01*
X15495714Y-12207476D02*
X15476667Y-12197952D01*
X15476667Y-12197952D02*
X15467143Y-12188428D01*
X15467143Y-12188428D02*
X15457619Y-12169381D01*
X15457619Y-12169381D02*
X15448095Y-12131286D01*
X15448095Y-12131286D02*
X15448095Y-12083667D01*
X15448095Y-12083667D02*
X15457619Y-12045571D01*
X15457619Y-12045571D02*
X15467143Y-12026524D01*
X15467143Y-12026524D02*
X15476667Y-12017000D01*
X15476667Y-12017000D02*
X15495714Y-12007476D01*
X15648095Y-12188428D02*
X15657619Y-12197952D01*
X15657619Y-12197952D02*
X15648095Y-12207476D01*
X15648095Y-12207476D02*
X15638571Y-12197952D01*
X15638571Y-12197952D02*
X15648095Y-12188428D01*
X15648095Y-12188428D02*
X15648095Y-12207476D01*
X15781429Y-12007476D02*
X15800476Y-12007476D01*
X15800476Y-12007476D02*
X15819524Y-12017000D01*
X15819524Y-12017000D02*
X15829048Y-12026524D01*
X15829048Y-12026524D02*
X15838571Y-12045571D01*
X15838571Y-12045571D02*
X15848095Y-12083667D01*
X15848095Y-12083667D02*
X15848095Y-12131286D01*
X15848095Y-12131286D02*
X15838571Y-12169381D01*
X15838571Y-12169381D02*
X15829048Y-12188428D01*
X15829048Y-12188428D02*
X15819524Y-12197952D01*
X15819524Y-12197952D02*
X15800476Y-12207476D01*
X15800476Y-12207476D02*
X15781429Y-12207476D01*
X15781429Y-12207476D02*
X15762381Y-12197952D01*
X15762381Y-12197952D02*
X15752857Y-12188428D01*
X15752857Y-12188428D02*
X15743333Y-12169381D01*
X15743333Y-12169381D02*
X15733810Y-12131286D01*
X15733810Y-12131286D02*
X15733810Y-12083667D01*
X15733810Y-12083667D02*
X15743333Y-12045571D01*
X15743333Y-12045571D02*
X15752857Y-12026524D01*
X15752857Y-12026524D02*
X15762381Y-12017000D01*
X15762381Y-12017000D02*
X15781429Y-12007476D01*
X16038571Y-12207476D02*
X15924286Y-12207476D01*
X15981429Y-12207476D02*
X15981429Y-12007476D01*
X15981429Y-12007476D02*
X15962381Y-12036048D01*
X15962381Y-12036048D02*
X15943333Y-12055095D01*
X15943333Y-12055095D02*
X15924286Y-12064619D01*
X16133810Y-12207476D02*
X16171905Y-12207476D01*
X16171905Y-12207476D02*
X16190952Y-12197952D01*
X16190952Y-12197952D02*
X16200476Y-12188428D01*
X16200476Y-12188428D02*
X16219524Y-12159857D01*
X16219524Y-12159857D02*
X16229048Y-12121762D01*
X16229048Y-12121762D02*
X16229048Y-12045571D01*
X16229048Y-12045571D02*
X16219524Y-12026524D01*
X16219524Y-12026524D02*
X16210000Y-12017000D01*
X16210000Y-12017000D02*
X16190952Y-12007476D01*
X16190952Y-12007476D02*
X16152857Y-12007476D01*
X16152857Y-12007476D02*
X16133810Y-12017000D01*
X16133810Y-12017000D02*
X16124286Y-12026524D01*
X16124286Y-12026524D02*
X16114762Y-12045571D01*
X16114762Y-12045571D02*
X16114762Y-12093190D01*
X16114762Y-12093190D02*
X16124286Y-12112238D01*
X16124286Y-12112238D02*
X16133810Y-12121762D01*
X16133810Y-12121762D02*
X16152857Y-12131286D01*
X16152857Y-12131286D02*
X16190952Y-12131286D01*
X16190952Y-12131286D02*
X16210000Y-12121762D01*
X16210000Y-12121762D02*
X16219524Y-12112238D01*
X16219524Y-12112238D02*
X16229048Y-12093190D01*
X16295714Y-12007476D02*
X16429048Y-12007476D01*
X16429048Y-12007476D02*
X16343333Y-12207476D01*
X16495714Y-12007476D02*
X16495714Y-12045571D01*
X16571905Y-12007476D02*
X16571905Y-12045571D01*
X16834762Y-12283667D02*
X16825238Y-12274143D01*
X16825238Y-12274143D02*
X16806191Y-12245571D01*
X16806191Y-12245571D02*
X16796667Y-12226524D01*
X16796667Y-12226524D02*
X16787143Y-12197952D01*
X16787143Y-12197952D02*
X16777619Y-12150333D01*
X16777619Y-12150333D02*
X16777619Y-12112238D01*
X16777619Y-12112238D02*
X16787143Y-12064619D01*
X16787143Y-12064619D02*
X16796667Y-12036048D01*
X16796667Y-12036048D02*
X16806191Y-12017000D01*
X16806191Y-12017000D02*
X16825238Y-11988428D01*
X16825238Y-11988428D02*
X16834762Y-11978905D01*
X16996667Y-12007476D02*
X16958572Y-12007476D01*
X16958572Y-12007476D02*
X16939524Y-12017000D01*
X16939524Y-12017000D02*
X16930000Y-12026524D01*
X16930000Y-12026524D02*
X16910953Y-12055095D01*
X16910953Y-12055095D02*
X16901429Y-12093190D01*
X16901429Y-12093190D02*
X16901429Y-12169381D01*
X16901429Y-12169381D02*
X16910953Y-12188428D01*
X16910953Y-12188428D02*
X16920476Y-12197952D01*
X16920476Y-12197952D02*
X16939524Y-12207476D01*
X16939524Y-12207476D02*
X16977619Y-12207476D01*
X16977619Y-12207476D02*
X16996667Y-12197952D01*
X16996667Y-12197952D02*
X17006191Y-12188428D01*
X17006191Y-12188428D02*
X17015714Y-12169381D01*
X17015714Y-12169381D02*
X17015714Y-12121762D01*
X17015714Y-12121762D02*
X17006191Y-12102714D01*
X17006191Y-12102714D02*
X16996667Y-12093190D01*
X16996667Y-12093190D02*
X16977619Y-12083667D01*
X16977619Y-12083667D02*
X16939524Y-12083667D01*
X16939524Y-12083667D02*
X16920476Y-12093190D01*
X16920476Y-12093190D02*
X16910953Y-12102714D01*
X16910953Y-12102714D02*
X16901429Y-12121762D01*
X17139524Y-12007476D02*
X17158572Y-12007476D01*
X17158572Y-12007476D02*
X17177619Y-12017000D01*
X17177619Y-12017000D02*
X17187143Y-12026524D01*
X17187143Y-12026524D02*
X17196667Y-12045571D01*
X17196667Y-12045571D02*
X17206191Y-12083667D01*
X17206191Y-12083667D02*
X17206191Y-12131286D01*
X17206191Y-12131286D02*
X17196667Y-12169381D01*
X17196667Y-12169381D02*
X17187143Y-12188428D01*
X17187143Y-12188428D02*
X17177619Y-12197952D01*
X17177619Y-12197952D02*
X17158572Y-12207476D01*
X17158572Y-12207476D02*
X17139524Y-12207476D01*
X17139524Y-12207476D02*
X17120476Y-12197952D01*
X17120476Y-12197952D02*
X17110953Y-12188428D01*
X17110953Y-12188428D02*
X17101429Y-12169381D01*
X17101429Y-12169381D02*
X17091905Y-12131286D01*
X17091905Y-12131286D02*
X17091905Y-12083667D01*
X17091905Y-12083667D02*
X17101429Y-12045571D01*
X17101429Y-12045571D02*
X17110953Y-12026524D01*
X17110953Y-12026524D02*
X17120476Y-12017000D01*
X17120476Y-12017000D02*
X17139524Y-12007476D01*
X17411905Y-12207476D02*
X17411905Y-12007476D01*
X17497619Y-12207476D02*
X17497619Y-12102714D01*
X17497619Y-12102714D02*
X17488095Y-12083667D01*
X17488095Y-12083667D02*
X17469048Y-12074143D01*
X17469048Y-12074143D02*
X17440476Y-12074143D01*
X17440476Y-12074143D02*
X17421429Y-12083667D01*
X17421429Y-12083667D02*
X17411905Y-12093190D01*
X17621429Y-12207476D02*
X17602381Y-12197952D01*
X17602381Y-12197952D02*
X17592857Y-12188428D01*
X17592857Y-12188428D02*
X17583334Y-12169381D01*
X17583334Y-12169381D02*
X17583334Y-12112238D01*
X17583334Y-12112238D02*
X17592857Y-12093190D01*
X17592857Y-12093190D02*
X17602381Y-12083667D01*
X17602381Y-12083667D02*
X17621429Y-12074143D01*
X17621429Y-12074143D02*
X17650000Y-12074143D01*
X17650000Y-12074143D02*
X17669048Y-12083667D01*
X17669048Y-12083667D02*
X17678572Y-12093190D01*
X17678572Y-12093190D02*
X17688095Y-12112238D01*
X17688095Y-12112238D02*
X17688095Y-12169381D01*
X17688095Y-12169381D02*
X17678572Y-12188428D01*
X17678572Y-12188428D02*
X17669048Y-12197952D01*
X17669048Y-12197952D02*
X17650000Y-12207476D01*
X17650000Y-12207476D02*
X17621429Y-12207476D01*
X17802381Y-12207476D02*
X17783334Y-12197952D01*
X17783334Y-12197952D02*
X17773810Y-12178905D01*
X17773810Y-12178905D02*
X17773810Y-12007476D01*
X17954762Y-12197952D02*
X17935715Y-12207476D01*
X17935715Y-12207476D02*
X17897619Y-12207476D01*
X17897619Y-12207476D02*
X17878572Y-12197952D01*
X17878572Y-12197952D02*
X17869048Y-12178905D01*
X17869048Y-12178905D02*
X17869048Y-12102714D01*
X17869048Y-12102714D02*
X17878572Y-12083667D01*
X17878572Y-12083667D02*
X17897619Y-12074143D01*
X17897619Y-12074143D02*
X17935715Y-12074143D01*
X17935715Y-12074143D02*
X17954762Y-12083667D01*
X17954762Y-12083667D02*
X17964286Y-12102714D01*
X17964286Y-12102714D02*
X17964286Y-12121762D01*
X17964286Y-12121762D02*
X17869048Y-12140809D01*
X18040476Y-12197952D02*
X18059524Y-12207476D01*
X18059524Y-12207476D02*
X18097619Y-12207476D01*
X18097619Y-12207476D02*
X18116667Y-12197952D01*
X18116667Y-12197952D02*
X18126191Y-12178905D01*
X18126191Y-12178905D02*
X18126191Y-12169381D01*
X18126191Y-12169381D02*
X18116667Y-12150333D01*
X18116667Y-12150333D02*
X18097619Y-12140809D01*
X18097619Y-12140809D02*
X18069048Y-12140809D01*
X18069048Y-12140809D02*
X18050000Y-12131286D01*
X18050000Y-12131286D02*
X18040476Y-12112238D01*
X18040476Y-12112238D02*
X18040476Y-12102714D01*
X18040476Y-12102714D02*
X18050000Y-12083667D01*
X18050000Y-12083667D02*
X18069048Y-12074143D01*
X18069048Y-12074143D02*
X18097619Y-12074143D01*
X18097619Y-12074143D02*
X18116667Y-12083667D01*
X18192857Y-12283667D02*
X18202381Y-12274143D01*
X18202381Y-12274143D02*
X18221429Y-12245571D01*
X18221429Y-12245571D02*
X18230953Y-12226524D01*
X18230953Y-12226524D02*
X18240476Y-12197952D01*
X18240476Y-12197952D02*
X18250000Y-12150333D01*
X18250000Y-12150333D02*
X18250000Y-12112238D01*
X18250000Y-12112238D02*
X18240476Y-12064619D01*
X18240476Y-12064619D02*
X18230953Y-12036048D01*
X18230953Y-12036048D02*
X18221429Y-12017000D01*
X18221429Y-12017000D02*
X18202381Y-11988428D01*
X18202381Y-11988428D02*
X18192857Y-11978905D01*
D14*
X13340000Y-12368000D02*
X13340000Y-12428000D01*
X13310000Y-12398000D02*
X13370000Y-12398000D01*
D11*
X13655714Y-12271476D02*
X13674762Y-12271476D01*
X13674762Y-12271476D02*
X13693809Y-12281000D01*
X13693809Y-12281000D02*
X13703333Y-12290524D01*
X13703333Y-12290524D02*
X13712857Y-12309571D01*
X13712857Y-12309571D02*
X13722381Y-12347667D01*
X13722381Y-12347667D02*
X13722381Y-12395286D01*
X13722381Y-12395286D02*
X13712857Y-12433381D01*
X13712857Y-12433381D02*
X13703333Y-12452428D01*
X13703333Y-12452428D02*
X13693809Y-12461952D01*
X13693809Y-12461952D02*
X13674762Y-12471476D01*
X13674762Y-12471476D02*
X13655714Y-12471476D01*
X13655714Y-12471476D02*
X13636667Y-12461952D01*
X13636667Y-12461952D02*
X13627143Y-12452428D01*
X13627143Y-12452428D02*
X13617619Y-12433381D01*
X13617619Y-12433381D02*
X13608095Y-12395286D01*
X13608095Y-12395286D02*
X13608095Y-12347667D01*
X13608095Y-12347667D02*
X13617619Y-12309571D01*
X13617619Y-12309571D02*
X13627143Y-12290524D01*
X13627143Y-12290524D02*
X13636667Y-12281000D01*
X13636667Y-12281000D02*
X13655714Y-12271476D01*
X13808095Y-12452428D02*
X13817619Y-12461952D01*
X13817619Y-12461952D02*
X13808095Y-12471476D01*
X13808095Y-12471476D02*
X13798571Y-12461952D01*
X13798571Y-12461952D02*
X13808095Y-12452428D01*
X13808095Y-12452428D02*
X13808095Y-12471476D01*
X13989048Y-12271476D02*
X13950952Y-12271476D01*
X13950952Y-12271476D02*
X13931905Y-12281000D01*
X13931905Y-12281000D02*
X13922381Y-12290524D01*
X13922381Y-12290524D02*
X13903333Y-12319095D01*
X13903333Y-12319095D02*
X13893809Y-12357190D01*
X13893809Y-12357190D02*
X13893809Y-12433381D01*
X13893809Y-12433381D02*
X13903333Y-12452428D01*
X13903333Y-12452428D02*
X13912857Y-12461952D01*
X13912857Y-12461952D02*
X13931905Y-12471476D01*
X13931905Y-12471476D02*
X13970000Y-12471476D01*
X13970000Y-12471476D02*
X13989048Y-12461952D01*
X13989048Y-12461952D02*
X13998571Y-12452428D01*
X13998571Y-12452428D02*
X14008095Y-12433381D01*
X14008095Y-12433381D02*
X14008095Y-12385762D01*
X14008095Y-12385762D02*
X13998571Y-12366714D01*
X13998571Y-12366714D02*
X13989048Y-12357190D01*
X13989048Y-12357190D02*
X13970000Y-12347667D01*
X13970000Y-12347667D02*
X13931905Y-12347667D01*
X13931905Y-12347667D02*
X13912857Y-12357190D01*
X13912857Y-12357190D02*
X13903333Y-12366714D01*
X13903333Y-12366714D02*
X13893809Y-12385762D01*
X14131905Y-12271476D02*
X14150952Y-12271476D01*
X14150952Y-12271476D02*
X14170000Y-12281000D01*
X14170000Y-12281000D02*
X14179524Y-12290524D01*
X14179524Y-12290524D02*
X14189048Y-12309571D01*
X14189048Y-12309571D02*
X14198571Y-12347667D01*
X14198571Y-12347667D02*
X14198571Y-12395286D01*
X14198571Y-12395286D02*
X14189048Y-12433381D01*
X14189048Y-12433381D02*
X14179524Y-12452428D01*
X14179524Y-12452428D02*
X14170000Y-12461952D01*
X14170000Y-12461952D02*
X14150952Y-12471476D01*
X14150952Y-12471476D02*
X14131905Y-12471476D01*
X14131905Y-12471476D02*
X14112857Y-12461952D01*
X14112857Y-12461952D02*
X14103333Y-12452428D01*
X14103333Y-12452428D02*
X14093809Y-12433381D01*
X14093809Y-12433381D02*
X14084286Y-12395286D01*
X14084286Y-12395286D02*
X14084286Y-12347667D01*
X14084286Y-12347667D02*
X14093809Y-12309571D01*
X14093809Y-12309571D02*
X14103333Y-12290524D01*
X14103333Y-12290524D02*
X14112857Y-12281000D01*
X14112857Y-12281000D02*
X14131905Y-12271476D01*
X14322381Y-12271476D02*
X14341429Y-12271476D01*
X14341429Y-12271476D02*
X14360476Y-12281000D01*
X14360476Y-12281000D02*
X14370000Y-12290524D01*
X14370000Y-12290524D02*
X14379524Y-12309571D01*
X14379524Y-12309571D02*
X14389048Y-12347667D01*
X14389048Y-12347667D02*
X14389048Y-12395286D01*
X14389048Y-12395286D02*
X14379524Y-12433381D01*
X14379524Y-12433381D02*
X14370000Y-12452428D01*
X14370000Y-12452428D02*
X14360476Y-12461952D01*
X14360476Y-12461952D02*
X14341429Y-12471476D01*
X14341429Y-12471476D02*
X14322381Y-12471476D01*
X14322381Y-12471476D02*
X14303333Y-12461952D01*
X14303333Y-12461952D02*
X14293809Y-12452428D01*
X14293809Y-12452428D02*
X14284286Y-12433381D01*
X14284286Y-12433381D02*
X14274762Y-12395286D01*
X14274762Y-12395286D02*
X14274762Y-12347667D01*
X14274762Y-12347667D02*
X14284286Y-12309571D01*
X14284286Y-12309571D02*
X14293809Y-12290524D01*
X14293809Y-12290524D02*
X14303333Y-12281000D01*
X14303333Y-12281000D02*
X14322381Y-12271476D01*
X14474762Y-12471476D02*
X14474762Y-12338143D01*
X14474762Y-12357190D02*
X14484286Y-12347667D01*
X14484286Y-12347667D02*
X14503333Y-12338143D01*
X14503333Y-12338143D02*
X14531905Y-12338143D01*
X14531905Y-12338143D02*
X14550952Y-12347667D01*
X14550952Y-12347667D02*
X14560476Y-12366714D01*
X14560476Y-12366714D02*
X14560476Y-12471476D01*
X14560476Y-12366714D02*
X14570000Y-12347667D01*
X14570000Y-12347667D02*
X14589048Y-12338143D01*
X14589048Y-12338143D02*
X14617619Y-12338143D01*
X14617619Y-12338143D02*
X14636667Y-12347667D01*
X14636667Y-12347667D02*
X14646190Y-12366714D01*
X14646190Y-12366714D02*
X14646190Y-12471476D01*
X14741429Y-12471476D02*
X14741429Y-12338143D01*
X14741429Y-12357190D02*
X14750952Y-12347667D01*
X14750952Y-12347667D02*
X14770000Y-12338143D01*
X14770000Y-12338143D02*
X14798571Y-12338143D01*
X14798571Y-12338143D02*
X14817619Y-12347667D01*
X14817619Y-12347667D02*
X14827143Y-12366714D01*
X14827143Y-12366714D02*
X14827143Y-12471476D01*
X14827143Y-12366714D02*
X14836667Y-12347667D01*
X14836667Y-12347667D02*
X14855714Y-12338143D01*
X14855714Y-12338143D02*
X14884286Y-12338143D01*
X14884286Y-12338143D02*
X14903333Y-12347667D01*
X14903333Y-12347667D02*
X14912857Y-12366714D01*
X14912857Y-12366714D02*
X14912857Y-12471476D01*
X15270952Y-12261952D02*
X15099524Y-12519095D01*
X15495714Y-12271476D02*
X15514762Y-12271476D01*
X15514762Y-12271476D02*
X15533810Y-12281000D01*
X15533810Y-12281000D02*
X15543333Y-12290524D01*
X15543333Y-12290524D02*
X15552857Y-12309571D01*
X15552857Y-12309571D02*
X15562381Y-12347667D01*
X15562381Y-12347667D02*
X15562381Y-12395286D01*
X15562381Y-12395286D02*
X15552857Y-12433381D01*
X15552857Y-12433381D02*
X15543333Y-12452428D01*
X15543333Y-12452428D02*
X15533810Y-12461952D01*
X15533810Y-12461952D02*
X15514762Y-12471476D01*
X15514762Y-12471476D02*
X15495714Y-12471476D01*
X15495714Y-12471476D02*
X15476667Y-12461952D01*
X15476667Y-12461952D02*
X15467143Y-12452428D01*
X15467143Y-12452428D02*
X15457619Y-12433381D01*
X15457619Y-12433381D02*
X15448095Y-12395286D01*
X15448095Y-12395286D02*
X15448095Y-12347667D01*
X15448095Y-12347667D02*
X15457619Y-12309571D01*
X15457619Y-12309571D02*
X15467143Y-12290524D01*
X15467143Y-12290524D02*
X15476667Y-12281000D01*
X15476667Y-12281000D02*
X15495714Y-12271476D01*
X15648095Y-12452428D02*
X15657619Y-12461952D01*
X15657619Y-12461952D02*
X15648095Y-12471476D01*
X15648095Y-12471476D02*
X15638571Y-12461952D01*
X15638571Y-12461952D02*
X15648095Y-12452428D01*
X15648095Y-12452428D02*
X15648095Y-12471476D01*
X15781429Y-12271476D02*
X15800476Y-12271476D01*
X15800476Y-12271476D02*
X15819524Y-12281000D01*
X15819524Y-12281000D02*
X15829048Y-12290524D01*
X15829048Y-12290524D02*
X15838571Y-12309571D01*
X15838571Y-12309571D02*
X15848095Y-12347667D01*
X15848095Y-12347667D02*
X15848095Y-12395286D01*
X15848095Y-12395286D02*
X15838571Y-12433381D01*
X15838571Y-12433381D02*
X15829048Y-12452428D01*
X15829048Y-12452428D02*
X15819524Y-12461952D01*
X15819524Y-12461952D02*
X15800476Y-12471476D01*
X15800476Y-12471476D02*
X15781429Y-12471476D01*
X15781429Y-12471476D02*
X15762381Y-12461952D01*
X15762381Y-12461952D02*
X15752857Y-12452428D01*
X15752857Y-12452428D02*
X15743333Y-12433381D01*
X15743333Y-12433381D02*
X15733810Y-12395286D01*
X15733810Y-12395286D02*
X15733810Y-12347667D01*
X15733810Y-12347667D02*
X15743333Y-12309571D01*
X15743333Y-12309571D02*
X15752857Y-12290524D01*
X15752857Y-12290524D02*
X15762381Y-12281000D01*
X15762381Y-12281000D02*
X15781429Y-12271476D01*
X15924286Y-12290524D02*
X15933810Y-12281000D01*
X15933810Y-12281000D02*
X15952857Y-12271476D01*
X15952857Y-12271476D02*
X16000476Y-12271476D01*
X16000476Y-12271476D02*
X16019524Y-12281000D01*
X16019524Y-12281000D02*
X16029048Y-12290524D01*
X16029048Y-12290524D02*
X16038571Y-12309571D01*
X16038571Y-12309571D02*
X16038571Y-12328619D01*
X16038571Y-12328619D02*
X16029048Y-12357190D01*
X16029048Y-12357190D02*
X15914762Y-12471476D01*
X15914762Y-12471476D02*
X16038571Y-12471476D01*
X16105238Y-12271476D02*
X16229048Y-12271476D01*
X16229048Y-12271476D02*
X16162381Y-12347667D01*
X16162381Y-12347667D02*
X16190952Y-12347667D01*
X16190952Y-12347667D02*
X16210000Y-12357190D01*
X16210000Y-12357190D02*
X16219524Y-12366714D01*
X16219524Y-12366714D02*
X16229048Y-12385762D01*
X16229048Y-12385762D02*
X16229048Y-12433381D01*
X16229048Y-12433381D02*
X16219524Y-12452428D01*
X16219524Y-12452428D02*
X16210000Y-12461952D01*
X16210000Y-12461952D02*
X16190952Y-12471476D01*
X16190952Y-12471476D02*
X16133810Y-12471476D01*
X16133810Y-12471476D02*
X16114762Y-12461952D01*
X16114762Y-12461952D02*
X16105238Y-12452428D01*
X16400476Y-12271476D02*
X16362381Y-12271476D01*
X16362381Y-12271476D02*
X16343333Y-12281000D01*
X16343333Y-12281000D02*
X16333810Y-12290524D01*
X16333810Y-12290524D02*
X16314762Y-12319095D01*
X16314762Y-12319095D02*
X16305238Y-12357190D01*
X16305238Y-12357190D02*
X16305238Y-12433381D01*
X16305238Y-12433381D02*
X16314762Y-12452428D01*
X16314762Y-12452428D02*
X16324286Y-12461952D01*
X16324286Y-12461952D02*
X16343333Y-12471476D01*
X16343333Y-12471476D02*
X16381429Y-12471476D01*
X16381429Y-12471476D02*
X16400476Y-12461952D01*
X16400476Y-12461952D02*
X16410000Y-12452428D01*
X16410000Y-12452428D02*
X16419524Y-12433381D01*
X16419524Y-12433381D02*
X16419524Y-12385762D01*
X16419524Y-12385762D02*
X16410000Y-12366714D01*
X16410000Y-12366714D02*
X16400476Y-12357190D01*
X16400476Y-12357190D02*
X16381429Y-12347667D01*
X16381429Y-12347667D02*
X16343333Y-12347667D01*
X16343333Y-12347667D02*
X16324286Y-12357190D01*
X16324286Y-12357190D02*
X16314762Y-12366714D01*
X16314762Y-12366714D02*
X16305238Y-12385762D01*
X16495714Y-12271476D02*
X16495714Y-12309571D01*
X16571905Y-12271476D02*
X16571905Y-12309571D01*
X16834762Y-12547667D02*
X16825238Y-12538143D01*
X16825238Y-12538143D02*
X16806191Y-12509571D01*
X16806191Y-12509571D02*
X16796667Y-12490524D01*
X16796667Y-12490524D02*
X16787143Y-12461952D01*
X16787143Y-12461952D02*
X16777619Y-12414333D01*
X16777619Y-12414333D02*
X16777619Y-12376238D01*
X16777619Y-12376238D02*
X16787143Y-12328619D01*
X16787143Y-12328619D02*
X16796667Y-12300048D01*
X16796667Y-12300048D02*
X16806191Y-12281000D01*
X16806191Y-12281000D02*
X16825238Y-12252428D01*
X16825238Y-12252428D02*
X16834762Y-12242905D01*
X16949048Y-12271476D02*
X16968095Y-12271476D01*
X16968095Y-12271476D02*
X16987143Y-12281000D01*
X16987143Y-12281000D02*
X16996667Y-12290524D01*
X16996667Y-12290524D02*
X17006191Y-12309571D01*
X17006191Y-12309571D02*
X17015714Y-12347667D01*
X17015714Y-12347667D02*
X17015714Y-12395286D01*
X17015714Y-12395286D02*
X17006191Y-12433381D01*
X17006191Y-12433381D02*
X16996667Y-12452428D01*
X16996667Y-12452428D02*
X16987143Y-12461952D01*
X16987143Y-12461952D02*
X16968095Y-12471476D01*
X16968095Y-12471476D02*
X16949048Y-12471476D01*
X16949048Y-12471476D02*
X16930000Y-12461952D01*
X16930000Y-12461952D02*
X16920476Y-12452428D01*
X16920476Y-12452428D02*
X16910953Y-12433381D01*
X16910953Y-12433381D02*
X16901429Y-12395286D01*
X16901429Y-12395286D02*
X16901429Y-12347667D01*
X16901429Y-12347667D02*
X16910953Y-12309571D01*
X16910953Y-12309571D02*
X16920476Y-12290524D01*
X16920476Y-12290524D02*
X16930000Y-12281000D01*
X16930000Y-12281000D02*
X16949048Y-12271476D01*
X17221429Y-12471476D02*
X17221429Y-12271476D01*
X17307143Y-12471476D02*
X17307143Y-12366714D01*
X17307143Y-12366714D02*
X17297619Y-12347667D01*
X17297619Y-12347667D02*
X17278572Y-12338143D01*
X17278572Y-12338143D02*
X17250000Y-12338143D01*
X17250000Y-12338143D02*
X17230953Y-12347667D01*
X17230953Y-12347667D02*
X17221429Y-12357190D01*
X17430953Y-12471476D02*
X17411905Y-12461952D01*
X17411905Y-12461952D02*
X17402381Y-12452428D01*
X17402381Y-12452428D02*
X17392857Y-12433381D01*
X17392857Y-12433381D02*
X17392857Y-12376238D01*
X17392857Y-12376238D02*
X17402381Y-12357190D01*
X17402381Y-12357190D02*
X17411905Y-12347667D01*
X17411905Y-12347667D02*
X17430953Y-12338143D01*
X17430953Y-12338143D02*
X17459524Y-12338143D01*
X17459524Y-12338143D02*
X17478572Y-12347667D01*
X17478572Y-12347667D02*
X17488095Y-12357190D01*
X17488095Y-12357190D02*
X17497619Y-12376238D01*
X17497619Y-12376238D02*
X17497619Y-12433381D01*
X17497619Y-12433381D02*
X17488095Y-12452428D01*
X17488095Y-12452428D02*
X17478572Y-12461952D01*
X17478572Y-12461952D02*
X17459524Y-12471476D01*
X17459524Y-12471476D02*
X17430953Y-12471476D01*
X17611905Y-12471476D02*
X17592857Y-12461952D01*
X17592857Y-12461952D02*
X17583334Y-12442905D01*
X17583334Y-12442905D02*
X17583334Y-12271476D01*
X17764286Y-12461952D02*
X17745238Y-12471476D01*
X17745238Y-12471476D02*
X17707143Y-12471476D01*
X17707143Y-12471476D02*
X17688095Y-12461952D01*
X17688095Y-12461952D02*
X17678572Y-12442905D01*
X17678572Y-12442905D02*
X17678572Y-12366714D01*
X17678572Y-12366714D02*
X17688095Y-12347667D01*
X17688095Y-12347667D02*
X17707143Y-12338143D01*
X17707143Y-12338143D02*
X17745238Y-12338143D01*
X17745238Y-12338143D02*
X17764286Y-12347667D01*
X17764286Y-12347667D02*
X17773810Y-12366714D01*
X17773810Y-12366714D02*
X17773810Y-12385762D01*
X17773810Y-12385762D02*
X17678572Y-12404809D01*
X17850000Y-12461952D02*
X17869048Y-12471476D01*
X17869048Y-12471476D02*
X17907143Y-12471476D01*
X17907143Y-12471476D02*
X17926191Y-12461952D01*
X17926191Y-12461952D02*
X17935715Y-12442905D01*
X17935715Y-12442905D02*
X17935715Y-12433381D01*
X17935715Y-12433381D02*
X17926191Y-12414333D01*
X17926191Y-12414333D02*
X17907143Y-12404809D01*
X17907143Y-12404809D02*
X17878572Y-12404809D01*
X17878572Y-12404809D02*
X17859524Y-12395286D01*
X17859524Y-12395286D02*
X17850000Y-12376238D01*
X17850000Y-12376238D02*
X17850000Y-12366714D01*
X17850000Y-12366714D02*
X17859524Y-12347667D01*
X17859524Y-12347667D02*
X17878572Y-12338143D01*
X17878572Y-12338143D02*
X17907143Y-12338143D01*
X17907143Y-12338143D02*
X17926191Y-12347667D01*
X18141429Y-12395286D02*
X18293810Y-12395286D01*
X18217619Y-12471476D02*
X18217619Y-12319095D01*
X18594762Y-12338143D02*
X18594762Y-12471476D01*
X18547143Y-12261952D02*
X18499524Y-12404809D01*
X18499524Y-12404809D02*
X18623334Y-12404809D01*
X18810000Y-12461952D02*
X18829048Y-12471476D01*
X18829048Y-12471476D02*
X18867143Y-12471476D01*
X18867143Y-12471476D02*
X18886191Y-12461952D01*
X18886191Y-12461952D02*
X18895715Y-12442905D01*
X18895715Y-12442905D02*
X18895715Y-12433381D01*
X18895715Y-12433381D02*
X18886191Y-12414333D01*
X18886191Y-12414333D02*
X18867143Y-12404809D01*
X18867143Y-12404809D02*
X18838572Y-12404809D01*
X18838572Y-12404809D02*
X18819524Y-12395286D01*
X18819524Y-12395286D02*
X18810000Y-12376238D01*
X18810000Y-12376238D02*
X18810000Y-12366714D01*
X18810000Y-12366714D02*
X18819524Y-12347667D01*
X18819524Y-12347667D02*
X18838572Y-12338143D01*
X18838572Y-12338143D02*
X18867143Y-12338143D01*
X18867143Y-12338143D02*
X18886191Y-12347667D01*
X19010000Y-12471476D02*
X18990953Y-12461952D01*
X18990953Y-12461952D02*
X18981429Y-12442905D01*
X18981429Y-12442905D02*
X18981429Y-12271476D01*
X19114762Y-12471476D02*
X19095715Y-12461952D01*
X19095715Y-12461952D02*
X19086191Y-12452428D01*
X19086191Y-12452428D02*
X19076667Y-12433381D01*
X19076667Y-12433381D02*
X19076667Y-12376238D01*
X19076667Y-12376238D02*
X19086191Y-12357190D01*
X19086191Y-12357190D02*
X19095715Y-12347667D01*
X19095715Y-12347667D02*
X19114762Y-12338143D01*
X19114762Y-12338143D02*
X19143334Y-12338143D01*
X19143334Y-12338143D02*
X19162381Y-12347667D01*
X19162381Y-12347667D02*
X19171905Y-12357190D01*
X19171905Y-12357190D02*
X19181429Y-12376238D01*
X19181429Y-12376238D02*
X19181429Y-12433381D01*
X19181429Y-12433381D02*
X19171905Y-12452428D01*
X19171905Y-12452428D02*
X19162381Y-12461952D01*
X19162381Y-12461952D02*
X19143334Y-12471476D01*
X19143334Y-12471476D02*
X19114762Y-12471476D01*
X19238572Y-12338143D02*
X19314762Y-12338143D01*
X19267143Y-12271476D02*
X19267143Y-12442905D01*
X19267143Y-12442905D02*
X19276667Y-12461952D01*
X19276667Y-12461952D02*
X19295715Y-12471476D01*
X19295715Y-12471476D02*
X19314762Y-12471476D01*
X19371905Y-12461952D02*
X19390953Y-12471476D01*
X19390953Y-12471476D02*
X19429048Y-12471476D01*
X19429048Y-12471476D02*
X19448096Y-12461952D01*
X19448096Y-12461952D02*
X19457619Y-12442905D01*
X19457619Y-12442905D02*
X19457619Y-12433381D01*
X19457619Y-12433381D02*
X19448096Y-12414333D01*
X19448096Y-12414333D02*
X19429048Y-12404809D01*
X19429048Y-12404809D02*
X19400476Y-12404809D01*
X19400476Y-12404809D02*
X19381429Y-12395286D01*
X19381429Y-12395286D02*
X19371905Y-12376238D01*
X19371905Y-12376238D02*
X19371905Y-12366714D01*
X19371905Y-12366714D02*
X19381429Y-12347667D01*
X19381429Y-12347667D02*
X19400476Y-12338143D01*
X19400476Y-12338143D02*
X19429048Y-12338143D01*
X19429048Y-12338143D02*
X19448096Y-12347667D01*
X19524286Y-12547667D02*
X19533810Y-12538143D01*
X19533810Y-12538143D02*
X19552857Y-12509571D01*
X19552857Y-12509571D02*
X19562381Y-12490524D01*
X19562381Y-12490524D02*
X19571905Y-12461952D01*
X19571905Y-12461952D02*
X19581429Y-12414333D01*
X19581429Y-12414333D02*
X19581429Y-12376238D01*
X19581429Y-12376238D02*
X19571905Y-12328619D01*
X19571905Y-12328619D02*
X19562381Y-12300048D01*
X19562381Y-12300048D02*
X19552857Y-12281000D01*
X19552857Y-12281000D02*
X19533810Y-12252428D01*
X19533810Y-12252428D02*
X19524286Y-12242905D01*
D10*
X13355356Y-12697356D02*
X13355356Y-12626644D01*
X13284644Y-12626644D01*
X13284644Y-12697356D01*
X13355356Y-12697356D01*
D11*
X13722381Y-12735476D02*
X13608095Y-12735476D01*
X13665238Y-12735476D02*
X13665238Y-12535476D01*
X13665238Y-12535476D02*
X13646190Y-12564048D01*
X13646190Y-12564048D02*
X13627143Y-12583095D01*
X13627143Y-12583095D02*
X13608095Y-12592619D01*
X13808095Y-12716428D02*
X13817619Y-12725952D01*
X13817619Y-12725952D02*
X13808095Y-12735476D01*
X13808095Y-12735476D02*
X13798571Y-12725952D01*
X13798571Y-12725952D02*
X13808095Y-12716428D01*
X13808095Y-12716428D02*
X13808095Y-12735476D01*
X13941428Y-12535476D02*
X13960476Y-12535476D01*
X13960476Y-12535476D02*
X13979524Y-12545000D01*
X13979524Y-12545000D02*
X13989048Y-12554524D01*
X13989048Y-12554524D02*
X13998571Y-12573571D01*
X13998571Y-12573571D02*
X14008095Y-12611667D01*
X14008095Y-12611667D02*
X14008095Y-12659286D01*
X14008095Y-12659286D02*
X13998571Y-12697381D01*
X13998571Y-12697381D02*
X13989048Y-12716428D01*
X13989048Y-12716428D02*
X13979524Y-12725952D01*
X13979524Y-12725952D02*
X13960476Y-12735476D01*
X13960476Y-12735476D02*
X13941428Y-12735476D01*
X13941428Y-12735476D02*
X13922381Y-12725952D01*
X13922381Y-12725952D02*
X13912857Y-12716428D01*
X13912857Y-12716428D02*
X13903333Y-12697381D01*
X13903333Y-12697381D02*
X13893809Y-12659286D01*
X13893809Y-12659286D02*
X13893809Y-12611667D01*
X13893809Y-12611667D02*
X13903333Y-12573571D01*
X13903333Y-12573571D02*
X13912857Y-12554524D01*
X13912857Y-12554524D02*
X13922381Y-12545000D01*
X13922381Y-12545000D02*
X13941428Y-12535476D01*
X14131905Y-12535476D02*
X14150952Y-12535476D01*
X14150952Y-12535476D02*
X14170000Y-12545000D01*
X14170000Y-12545000D02*
X14179524Y-12554524D01*
X14179524Y-12554524D02*
X14189048Y-12573571D01*
X14189048Y-12573571D02*
X14198571Y-12611667D01*
X14198571Y-12611667D02*
X14198571Y-12659286D01*
X14198571Y-12659286D02*
X14189048Y-12697381D01*
X14189048Y-12697381D02*
X14179524Y-12716428D01*
X14179524Y-12716428D02*
X14170000Y-12725952D01*
X14170000Y-12725952D02*
X14150952Y-12735476D01*
X14150952Y-12735476D02*
X14131905Y-12735476D01*
X14131905Y-12735476D02*
X14112857Y-12725952D01*
X14112857Y-12725952D02*
X14103333Y-12716428D01*
X14103333Y-12716428D02*
X14093809Y-12697381D01*
X14093809Y-12697381D02*
X14084286Y-12659286D01*
X14084286Y-12659286D02*
X14084286Y-12611667D01*
X14084286Y-12611667D02*
X14093809Y-12573571D01*
X14093809Y-12573571D02*
X14103333Y-12554524D01*
X14103333Y-12554524D02*
X14112857Y-12545000D01*
X14112857Y-12545000D02*
X14131905Y-12535476D01*
X14322381Y-12535476D02*
X14341429Y-12535476D01*
X14341429Y-12535476D02*
X14360476Y-12545000D01*
X14360476Y-12545000D02*
X14370000Y-12554524D01*
X14370000Y-12554524D02*
X14379524Y-12573571D01*
X14379524Y-12573571D02*
X14389048Y-12611667D01*
X14389048Y-12611667D02*
X14389048Y-12659286D01*
X14389048Y-12659286D02*
X14379524Y-12697381D01*
X14379524Y-12697381D02*
X14370000Y-12716428D01*
X14370000Y-12716428D02*
X14360476Y-12725952D01*
X14360476Y-12725952D02*
X14341429Y-12735476D01*
X14341429Y-12735476D02*
X14322381Y-12735476D01*
X14322381Y-12735476D02*
X14303333Y-12725952D01*
X14303333Y-12725952D02*
X14293809Y-12716428D01*
X14293809Y-12716428D02*
X14284286Y-12697381D01*
X14284286Y-12697381D02*
X14274762Y-12659286D01*
X14274762Y-12659286D02*
X14274762Y-12611667D01*
X14274762Y-12611667D02*
X14284286Y-12573571D01*
X14284286Y-12573571D02*
X14293809Y-12554524D01*
X14293809Y-12554524D02*
X14303333Y-12545000D01*
X14303333Y-12545000D02*
X14322381Y-12535476D01*
X14474762Y-12735476D02*
X14474762Y-12602143D01*
X14474762Y-12621190D02*
X14484286Y-12611667D01*
X14484286Y-12611667D02*
X14503333Y-12602143D01*
X14503333Y-12602143D02*
X14531905Y-12602143D01*
X14531905Y-12602143D02*
X14550952Y-12611667D01*
X14550952Y-12611667D02*
X14560476Y-12630714D01*
X14560476Y-12630714D02*
X14560476Y-12735476D01*
X14560476Y-12630714D02*
X14570000Y-12611667D01*
X14570000Y-12611667D02*
X14589048Y-12602143D01*
X14589048Y-12602143D02*
X14617619Y-12602143D01*
X14617619Y-12602143D02*
X14636667Y-12611667D01*
X14636667Y-12611667D02*
X14646190Y-12630714D01*
X14646190Y-12630714D02*
X14646190Y-12735476D01*
X14741429Y-12735476D02*
X14741429Y-12602143D01*
X14741429Y-12621190D02*
X14750952Y-12611667D01*
X14750952Y-12611667D02*
X14770000Y-12602143D01*
X14770000Y-12602143D02*
X14798571Y-12602143D01*
X14798571Y-12602143D02*
X14817619Y-12611667D01*
X14817619Y-12611667D02*
X14827143Y-12630714D01*
X14827143Y-12630714D02*
X14827143Y-12735476D01*
X14827143Y-12630714D02*
X14836667Y-12611667D01*
X14836667Y-12611667D02*
X14855714Y-12602143D01*
X14855714Y-12602143D02*
X14884286Y-12602143D01*
X14884286Y-12602143D02*
X14903333Y-12611667D01*
X14903333Y-12611667D02*
X14912857Y-12630714D01*
X14912857Y-12630714D02*
X14912857Y-12735476D01*
X15270952Y-12525952D02*
X15099524Y-12783095D01*
X15495714Y-12535476D02*
X15514762Y-12535476D01*
X15514762Y-12535476D02*
X15533810Y-12545000D01*
X15533810Y-12545000D02*
X15543333Y-12554524D01*
X15543333Y-12554524D02*
X15552857Y-12573571D01*
X15552857Y-12573571D02*
X15562381Y-12611667D01*
X15562381Y-12611667D02*
X15562381Y-12659286D01*
X15562381Y-12659286D02*
X15552857Y-12697381D01*
X15552857Y-12697381D02*
X15543333Y-12716428D01*
X15543333Y-12716428D02*
X15533810Y-12725952D01*
X15533810Y-12725952D02*
X15514762Y-12735476D01*
X15514762Y-12735476D02*
X15495714Y-12735476D01*
X15495714Y-12735476D02*
X15476667Y-12725952D01*
X15476667Y-12725952D02*
X15467143Y-12716428D01*
X15467143Y-12716428D02*
X15457619Y-12697381D01*
X15457619Y-12697381D02*
X15448095Y-12659286D01*
X15448095Y-12659286D02*
X15448095Y-12611667D01*
X15448095Y-12611667D02*
X15457619Y-12573571D01*
X15457619Y-12573571D02*
X15467143Y-12554524D01*
X15467143Y-12554524D02*
X15476667Y-12545000D01*
X15476667Y-12545000D02*
X15495714Y-12535476D01*
X15648095Y-12716428D02*
X15657619Y-12725952D01*
X15657619Y-12725952D02*
X15648095Y-12735476D01*
X15648095Y-12735476D02*
X15638571Y-12725952D01*
X15638571Y-12725952D02*
X15648095Y-12716428D01*
X15648095Y-12716428D02*
X15648095Y-12735476D01*
X15781429Y-12535476D02*
X15800476Y-12535476D01*
X15800476Y-12535476D02*
X15819524Y-12545000D01*
X15819524Y-12545000D02*
X15829048Y-12554524D01*
X15829048Y-12554524D02*
X15838571Y-12573571D01*
X15838571Y-12573571D02*
X15848095Y-12611667D01*
X15848095Y-12611667D02*
X15848095Y-12659286D01*
X15848095Y-12659286D02*
X15838571Y-12697381D01*
X15838571Y-12697381D02*
X15829048Y-12716428D01*
X15829048Y-12716428D02*
X15819524Y-12725952D01*
X15819524Y-12725952D02*
X15800476Y-12735476D01*
X15800476Y-12735476D02*
X15781429Y-12735476D01*
X15781429Y-12735476D02*
X15762381Y-12725952D01*
X15762381Y-12725952D02*
X15752857Y-12716428D01*
X15752857Y-12716428D02*
X15743333Y-12697381D01*
X15743333Y-12697381D02*
X15733810Y-12659286D01*
X15733810Y-12659286D02*
X15733810Y-12611667D01*
X15733810Y-12611667D02*
X15743333Y-12573571D01*
X15743333Y-12573571D02*
X15752857Y-12554524D01*
X15752857Y-12554524D02*
X15762381Y-12545000D01*
X15762381Y-12545000D02*
X15781429Y-12535476D01*
X15914762Y-12535476D02*
X16038571Y-12535476D01*
X16038571Y-12535476D02*
X15971905Y-12611667D01*
X15971905Y-12611667D02*
X16000476Y-12611667D01*
X16000476Y-12611667D02*
X16019524Y-12621190D01*
X16019524Y-12621190D02*
X16029048Y-12630714D01*
X16029048Y-12630714D02*
X16038571Y-12649762D01*
X16038571Y-12649762D02*
X16038571Y-12697381D01*
X16038571Y-12697381D02*
X16029048Y-12716428D01*
X16029048Y-12716428D02*
X16019524Y-12725952D01*
X16019524Y-12725952D02*
X16000476Y-12735476D01*
X16000476Y-12735476D02*
X15943333Y-12735476D01*
X15943333Y-12735476D02*
X15924286Y-12725952D01*
X15924286Y-12725952D02*
X15914762Y-12716428D01*
X16133810Y-12735476D02*
X16171905Y-12735476D01*
X16171905Y-12735476D02*
X16190952Y-12725952D01*
X16190952Y-12725952D02*
X16200476Y-12716428D01*
X16200476Y-12716428D02*
X16219524Y-12687857D01*
X16219524Y-12687857D02*
X16229048Y-12649762D01*
X16229048Y-12649762D02*
X16229048Y-12573571D01*
X16229048Y-12573571D02*
X16219524Y-12554524D01*
X16219524Y-12554524D02*
X16210000Y-12545000D01*
X16210000Y-12545000D02*
X16190952Y-12535476D01*
X16190952Y-12535476D02*
X16152857Y-12535476D01*
X16152857Y-12535476D02*
X16133810Y-12545000D01*
X16133810Y-12545000D02*
X16124286Y-12554524D01*
X16124286Y-12554524D02*
X16114762Y-12573571D01*
X16114762Y-12573571D02*
X16114762Y-12621190D01*
X16114762Y-12621190D02*
X16124286Y-12640238D01*
X16124286Y-12640238D02*
X16133810Y-12649762D01*
X16133810Y-12649762D02*
X16152857Y-12659286D01*
X16152857Y-12659286D02*
X16190952Y-12659286D01*
X16190952Y-12659286D02*
X16210000Y-12649762D01*
X16210000Y-12649762D02*
X16219524Y-12640238D01*
X16219524Y-12640238D02*
X16229048Y-12621190D01*
X16400476Y-12602143D02*
X16400476Y-12735476D01*
X16352857Y-12525952D02*
X16305238Y-12668809D01*
X16305238Y-12668809D02*
X16429048Y-12668809D01*
X16495714Y-12535476D02*
X16495714Y-12573571D01*
X16571905Y-12535476D02*
X16571905Y-12573571D01*
X16834762Y-12811667D02*
X16825238Y-12802143D01*
X16825238Y-12802143D02*
X16806191Y-12773571D01*
X16806191Y-12773571D02*
X16796667Y-12754524D01*
X16796667Y-12754524D02*
X16787143Y-12725952D01*
X16787143Y-12725952D02*
X16777619Y-12678333D01*
X16777619Y-12678333D02*
X16777619Y-12640238D01*
X16777619Y-12640238D02*
X16787143Y-12592619D01*
X16787143Y-12592619D02*
X16796667Y-12564048D01*
X16796667Y-12564048D02*
X16806191Y-12545000D01*
X16806191Y-12545000D02*
X16825238Y-12516428D01*
X16825238Y-12516428D02*
X16834762Y-12506905D01*
X17006191Y-12535476D02*
X16910953Y-12535476D01*
X16910953Y-12535476D02*
X16901429Y-12630714D01*
X16901429Y-12630714D02*
X16910953Y-12621190D01*
X16910953Y-12621190D02*
X16930000Y-12611667D01*
X16930000Y-12611667D02*
X16977619Y-12611667D01*
X16977619Y-12611667D02*
X16996667Y-12621190D01*
X16996667Y-12621190D02*
X17006191Y-12630714D01*
X17006191Y-12630714D02*
X17015714Y-12649762D01*
X17015714Y-12649762D02*
X17015714Y-12697381D01*
X17015714Y-12697381D02*
X17006191Y-12716428D01*
X17006191Y-12716428D02*
X16996667Y-12725952D01*
X16996667Y-12725952D02*
X16977619Y-12735476D01*
X16977619Y-12735476D02*
X16930000Y-12735476D01*
X16930000Y-12735476D02*
X16910953Y-12725952D01*
X16910953Y-12725952D02*
X16901429Y-12716428D01*
X17221429Y-12735476D02*
X17221429Y-12535476D01*
X17307143Y-12735476D02*
X17307143Y-12630714D01*
X17307143Y-12630714D02*
X17297619Y-12611667D01*
X17297619Y-12611667D02*
X17278572Y-12602143D01*
X17278572Y-12602143D02*
X17250000Y-12602143D01*
X17250000Y-12602143D02*
X17230953Y-12611667D01*
X17230953Y-12611667D02*
X17221429Y-12621190D01*
X17430953Y-12735476D02*
X17411905Y-12725952D01*
X17411905Y-12725952D02*
X17402381Y-12716428D01*
X17402381Y-12716428D02*
X17392857Y-12697381D01*
X17392857Y-12697381D02*
X17392857Y-12640238D01*
X17392857Y-12640238D02*
X17402381Y-12621190D01*
X17402381Y-12621190D02*
X17411905Y-12611667D01*
X17411905Y-12611667D02*
X17430953Y-12602143D01*
X17430953Y-12602143D02*
X17459524Y-12602143D01*
X17459524Y-12602143D02*
X17478572Y-12611667D01*
X17478572Y-12611667D02*
X17488095Y-12621190D01*
X17488095Y-12621190D02*
X17497619Y-12640238D01*
X17497619Y-12640238D02*
X17497619Y-12697381D01*
X17497619Y-12697381D02*
X17488095Y-12716428D01*
X17488095Y-12716428D02*
X17478572Y-12725952D01*
X17478572Y-12725952D02*
X17459524Y-12735476D01*
X17459524Y-12735476D02*
X17430953Y-12735476D01*
X17611905Y-12735476D02*
X17592857Y-12725952D01*
X17592857Y-12725952D02*
X17583334Y-12706905D01*
X17583334Y-12706905D02*
X17583334Y-12535476D01*
X17764286Y-12725952D02*
X17745238Y-12735476D01*
X17745238Y-12735476D02*
X17707143Y-12735476D01*
X17707143Y-12735476D02*
X17688095Y-12725952D01*
X17688095Y-12725952D02*
X17678572Y-12706905D01*
X17678572Y-12706905D02*
X17678572Y-12630714D01*
X17678572Y-12630714D02*
X17688095Y-12611667D01*
X17688095Y-12611667D02*
X17707143Y-12602143D01*
X17707143Y-12602143D02*
X17745238Y-12602143D01*
X17745238Y-12602143D02*
X17764286Y-12611667D01*
X17764286Y-12611667D02*
X17773810Y-12630714D01*
X17773810Y-12630714D02*
X17773810Y-12649762D01*
X17773810Y-12649762D02*
X17678572Y-12668809D01*
X17850000Y-12725952D02*
X17869048Y-12735476D01*
X17869048Y-12735476D02*
X17907143Y-12735476D01*
X17907143Y-12735476D02*
X17926191Y-12725952D01*
X17926191Y-12725952D02*
X17935715Y-12706905D01*
X17935715Y-12706905D02*
X17935715Y-12697381D01*
X17935715Y-12697381D02*
X17926191Y-12678333D01*
X17926191Y-12678333D02*
X17907143Y-12668809D01*
X17907143Y-12668809D02*
X17878572Y-12668809D01*
X17878572Y-12668809D02*
X17859524Y-12659286D01*
X17859524Y-12659286D02*
X17850000Y-12640238D01*
X17850000Y-12640238D02*
X17850000Y-12630714D01*
X17850000Y-12630714D02*
X17859524Y-12611667D01*
X17859524Y-12611667D02*
X17878572Y-12602143D01*
X17878572Y-12602143D02*
X17907143Y-12602143D01*
X17907143Y-12602143D02*
X17926191Y-12611667D01*
X18141429Y-12659286D02*
X18293810Y-12659286D01*
X18217619Y-12735476D02*
X18217619Y-12583095D01*
X18490000Y-12535476D02*
X18613810Y-12535476D01*
X18613810Y-12535476D02*
X18547143Y-12611667D01*
X18547143Y-12611667D02*
X18575715Y-12611667D01*
X18575715Y-12611667D02*
X18594762Y-12621190D01*
X18594762Y-12621190D02*
X18604286Y-12630714D01*
X18604286Y-12630714D02*
X18613810Y-12649762D01*
X18613810Y-12649762D02*
X18613810Y-12697381D01*
X18613810Y-12697381D02*
X18604286Y-12716428D01*
X18604286Y-12716428D02*
X18594762Y-12725952D01*
X18594762Y-12725952D02*
X18575715Y-12735476D01*
X18575715Y-12735476D02*
X18518572Y-12735476D01*
X18518572Y-12735476D02*
X18499524Y-12725952D01*
X18499524Y-12725952D02*
X18490000Y-12716428D01*
X18810000Y-12725952D02*
X18829048Y-12735476D01*
X18829048Y-12735476D02*
X18867143Y-12735476D01*
X18867143Y-12735476D02*
X18886191Y-12725952D01*
X18886191Y-12725952D02*
X18895715Y-12706905D01*
X18895715Y-12706905D02*
X18895715Y-12697381D01*
X18895715Y-12697381D02*
X18886191Y-12678333D01*
X18886191Y-12678333D02*
X18867143Y-12668809D01*
X18867143Y-12668809D02*
X18838572Y-12668809D01*
X18838572Y-12668809D02*
X18819524Y-12659286D01*
X18819524Y-12659286D02*
X18810000Y-12640238D01*
X18810000Y-12640238D02*
X18810000Y-12630714D01*
X18810000Y-12630714D02*
X18819524Y-12611667D01*
X18819524Y-12611667D02*
X18838572Y-12602143D01*
X18838572Y-12602143D02*
X18867143Y-12602143D01*
X18867143Y-12602143D02*
X18886191Y-12611667D01*
X19010000Y-12735476D02*
X18990953Y-12725952D01*
X18990953Y-12725952D02*
X18981429Y-12706905D01*
X18981429Y-12706905D02*
X18981429Y-12535476D01*
X19114762Y-12735476D02*
X19095715Y-12725952D01*
X19095715Y-12725952D02*
X19086191Y-12716428D01*
X19086191Y-12716428D02*
X19076667Y-12697381D01*
X19076667Y-12697381D02*
X19076667Y-12640238D01*
X19076667Y-12640238D02*
X19086191Y-12621190D01*
X19086191Y-12621190D02*
X19095715Y-12611667D01*
X19095715Y-12611667D02*
X19114762Y-12602143D01*
X19114762Y-12602143D02*
X19143334Y-12602143D01*
X19143334Y-12602143D02*
X19162381Y-12611667D01*
X19162381Y-12611667D02*
X19171905Y-12621190D01*
X19171905Y-12621190D02*
X19181429Y-12640238D01*
X19181429Y-12640238D02*
X19181429Y-12697381D01*
X19181429Y-12697381D02*
X19171905Y-12716428D01*
X19171905Y-12716428D02*
X19162381Y-12725952D01*
X19162381Y-12725952D02*
X19143334Y-12735476D01*
X19143334Y-12735476D02*
X19114762Y-12735476D01*
X19238572Y-12602143D02*
X19314762Y-12602143D01*
X19267143Y-12535476D02*
X19267143Y-12706905D01*
X19267143Y-12706905D02*
X19276667Y-12725952D01*
X19276667Y-12725952D02*
X19295715Y-12735476D01*
X19295715Y-12735476D02*
X19314762Y-12735476D01*
X19371905Y-12725952D02*
X19390953Y-12735476D01*
X19390953Y-12735476D02*
X19429048Y-12735476D01*
X19429048Y-12735476D02*
X19448096Y-12725952D01*
X19448096Y-12725952D02*
X19457619Y-12706905D01*
X19457619Y-12706905D02*
X19457619Y-12697381D01*
X19457619Y-12697381D02*
X19448096Y-12678333D01*
X19448096Y-12678333D02*
X19429048Y-12668809D01*
X19429048Y-12668809D02*
X19400476Y-12668809D01*
X19400476Y-12668809D02*
X19381429Y-12659286D01*
X19381429Y-12659286D02*
X19371905Y-12640238D01*
X19371905Y-12640238D02*
X19371905Y-12630714D01*
X19371905Y-12630714D02*
X19381429Y-12611667D01*
X19381429Y-12611667D02*
X19400476Y-12602143D01*
X19400476Y-12602143D02*
X19429048Y-12602143D01*
X19429048Y-12602143D02*
X19448096Y-12611667D01*
X19524286Y-12811667D02*
X19533810Y-12802143D01*
X19533810Y-12802143D02*
X19552857Y-12773571D01*
X19552857Y-12773571D02*
X19562381Y-12754524D01*
X19562381Y-12754524D02*
X19571905Y-12725952D01*
X19571905Y-12725952D02*
X19581429Y-12678333D01*
X19581429Y-12678333D02*
X19581429Y-12640238D01*
X19581429Y-12640238D02*
X19571905Y-12592619D01*
X19571905Y-12592619D02*
X19562381Y-12564048D01*
X19562381Y-12564048D02*
X19552857Y-12545000D01*
X19552857Y-12545000D02*
X19533810Y-12516428D01*
X19533810Y-12516428D02*
X19524286Y-12506905D01*
D15*
X13295000Y-13001000D02*
X13370000Y-12926000D01*
X13295000Y-12851000D01*
X13220000Y-12926000D01*
X13295000Y-13001000D01*
D11*
X13722381Y-12999476D02*
X13608095Y-12999476D01*
X13665238Y-12999476D02*
X13665238Y-12799476D01*
X13665238Y-12799476D02*
X13646190Y-12828048D01*
X13646190Y-12828048D02*
X13627143Y-12847095D01*
X13627143Y-12847095D02*
X13608095Y-12856619D01*
X13808095Y-12980428D02*
X13817619Y-12989952D01*
X13817619Y-12989952D02*
X13808095Y-12999476D01*
X13808095Y-12999476D02*
X13798571Y-12989952D01*
X13798571Y-12989952D02*
X13808095Y-12980428D01*
X13808095Y-12980428D02*
X13808095Y-12999476D01*
X13998571Y-12799476D02*
X13903333Y-12799476D01*
X13903333Y-12799476D02*
X13893809Y-12894714D01*
X13893809Y-12894714D02*
X13903333Y-12885190D01*
X13903333Y-12885190D02*
X13922381Y-12875667D01*
X13922381Y-12875667D02*
X13970000Y-12875667D01*
X13970000Y-12875667D02*
X13989048Y-12885190D01*
X13989048Y-12885190D02*
X13998571Y-12894714D01*
X13998571Y-12894714D02*
X14008095Y-12913762D01*
X14008095Y-12913762D02*
X14008095Y-12961381D01*
X14008095Y-12961381D02*
X13998571Y-12980428D01*
X13998571Y-12980428D02*
X13989048Y-12989952D01*
X13989048Y-12989952D02*
X13970000Y-12999476D01*
X13970000Y-12999476D02*
X13922381Y-12999476D01*
X13922381Y-12999476D02*
X13903333Y-12989952D01*
X13903333Y-12989952D02*
X13893809Y-12980428D01*
X14131905Y-12799476D02*
X14150952Y-12799476D01*
X14150952Y-12799476D02*
X14170000Y-12809000D01*
X14170000Y-12809000D02*
X14179524Y-12818524D01*
X14179524Y-12818524D02*
X14189048Y-12837571D01*
X14189048Y-12837571D02*
X14198571Y-12875667D01*
X14198571Y-12875667D02*
X14198571Y-12923286D01*
X14198571Y-12923286D02*
X14189048Y-12961381D01*
X14189048Y-12961381D02*
X14179524Y-12980428D01*
X14179524Y-12980428D02*
X14170000Y-12989952D01*
X14170000Y-12989952D02*
X14150952Y-12999476D01*
X14150952Y-12999476D02*
X14131905Y-12999476D01*
X14131905Y-12999476D02*
X14112857Y-12989952D01*
X14112857Y-12989952D02*
X14103333Y-12980428D01*
X14103333Y-12980428D02*
X14093809Y-12961381D01*
X14093809Y-12961381D02*
X14084286Y-12923286D01*
X14084286Y-12923286D02*
X14084286Y-12875667D01*
X14084286Y-12875667D02*
X14093809Y-12837571D01*
X14093809Y-12837571D02*
X14103333Y-12818524D01*
X14103333Y-12818524D02*
X14112857Y-12809000D01*
X14112857Y-12809000D02*
X14131905Y-12799476D01*
X14322381Y-12799476D02*
X14341429Y-12799476D01*
X14341429Y-12799476D02*
X14360476Y-12809000D01*
X14360476Y-12809000D02*
X14370000Y-12818524D01*
X14370000Y-12818524D02*
X14379524Y-12837571D01*
X14379524Y-12837571D02*
X14389048Y-12875667D01*
X14389048Y-12875667D02*
X14389048Y-12923286D01*
X14389048Y-12923286D02*
X14379524Y-12961381D01*
X14379524Y-12961381D02*
X14370000Y-12980428D01*
X14370000Y-12980428D02*
X14360476Y-12989952D01*
X14360476Y-12989952D02*
X14341429Y-12999476D01*
X14341429Y-12999476D02*
X14322381Y-12999476D01*
X14322381Y-12999476D02*
X14303333Y-12989952D01*
X14303333Y-12989952D02*
X14293809Y-12980428D01*
X14293809Y-12980428D02*
X14284286Y-12961381D01*
X14284286Y-12961381D02*
X14274762Y-12923286D01*
X14274762Y-12923286D02*
X14274762Y-12875667D01*
X14274762Y-12875667D02*
X14284286Y-12837571D01*
X14284286Y-12837571D02*
X14293809Y-12818524D01*
X14293809Y-12818524D02*
X14303333Y-12809000D01*
X14303333Y-12809000D02*
X14322381Y-12799476D01*
X14474762Y-12999476D02*
X14474762Y-12866143D01*
X14474762Y-12885190D02*
X14484286Y-12875667D01*
X14484286Y-12875667D02*
X14503333Y-12866143D01*
X14503333Y-12866143D02*
X14531905Y-12866143D01*
X14531905Y-12866143D02*
X14550952Y-12875667D01*
X14550952Y-12875667D02*
X14560476Y-12894714D01*
X14560476Y-12894714D02*
X14560476Y-12999476D01*
X14560476Y-12894714D02*
X14570000Y-12875667D01*
X14570000Y-12875667D02*
X14589048Y-12866143D01*
X14589048Y-12866143D02*
X14617619Y-12866143D01*
X14617619Y-12866143D02*
X14636667Y-12875667D01*
X14636667Y-12875667D02*
X14646190Y-12894714D01*
X14646190Y-12894714D02*
X14646190Y-12999476D01*
X14741429Y-12999476D02*
X14741429Y-12866143D01*
X14741429Y-12885190D02*
X14750952Y-12875667D01*
X14750952Y-12875667D02*
X14770000Y-12866143D01*
X14770000Y-12866143D02*
X14798571Y-12866143D01*
X14798571Y-12866143D02*
X14817619Y-12875667D01*
X14817619Y-12875667D02*
X14827143Y-12894714D01*
X14827143Y-12894714D02*
X14827143Y-12999476D01*
X14827143Y-12894714D02*
X14836667Y-12875667D01*
X14836667Y-12875667D02*
X14855714Y-12866143D01*
X14855714Y-12866143D02*
X14884286Y-12866143D01*
X14884286Y-12866143D02*
X14903333Y-12875667D01*
X14903333Y-12875667D02*
X14912857Y-12894714D01*
X14912857Y-12894714D02*
X14912857Y-12999476D01*
X15270952Y-12789952D02*
X15099524Y-13047095D01*
X15495714Y-12799476D02*
X15514762Y-12799476D01*
X15514762Y-12799476D02*
X15533810Y-12809000D01*
X15533810Y-12809000D02*
X15543333Y-12818524D01*
X15543333Y-12818524D02*
X15552857Y-12837571D01*
X15552857Y-12837571D02*
X15562381Y-12875667D01*
X15562381Y-12875667D02*
X15562381Y-12923286D01*
X15562381Y-12923286D02*
X15552857Y-12961381D01*
X15552857Y-12961381D02*
X15543333Y-12980428D01*
X15543333Y-12980428D02*
X15533810Y-12989952D01*
X15533810Y-12989952D02*
X15514762Y-12999476D01*
X15514762Y-12999476D02*
X15495714Y-12999476D01*
X15495714Y-12999476D02*
X15476667Y-12989952D01*
X15476667Y-12989952D02*
X15467143Y-12980428D01*
X15467143Y-12980428D02*
X15457619Y-12961381D01*
X15457619Y-12961381D02*
X15448095Y-12923286D01*
X15448095Y-12923286D02*
X15448095Y-12875667D01*
X15448095Y-12875667D02*
X15457619Y-12837571D01*
X15457619Y-12837571D02*
X15467143Y-12818524D01*
X15467143Y-12818524D02*
X15476667Y-12809000D01*
X15476667Y-12809000D02*
X15495714Y-12799476D01*
X15648095Y-12980428D02*
X15657619Y-12989952D01*
X15657619Y-12989952D02*
X15648095Y-12999476D01*
X15648095Y-12999476D02*
X15638571Y-12989952D01*
X15638571Y-12989952D02*
X15648095Y-12980428D01*
X15648095Y-12980428D02*
X15648095Y-12999476D01*
X15781429Y-12799476D02*
X15800476Y-12799476D01*
X15800476Y-12799476D02*
X15819524Y-12809000D01*
X15819524Y-12809000D02*
X15829048Y-12818524D01*
X15829048Y-12818524D02*
X15838571Y-12837571D01*
X15838571Y-12837571D02*
X15848095Y-12875667D01*
X15848095Y-12875667D02*
X15848095Y-12923286D01*
X15848095Y-12923286D02*
X15838571Y-12961381D01*
X15838571Y-12961381D02*
X15829048Y-12980428D01*
X15829048Y-12980428D02*
X15819524Y-12989952D01*
X15819524Y-12989952D02*
X15800476Y-12999476D01*
X15800476Y-12999476D02*
X15781429Y-12999476D01*
X15781429Y-12999476D02*
X15762381Y-12989952D01*
X15762381Y-12989952D02*
X15752857Y-12980428D01*
X15752857Y-12980428D02*
X15743333Y-12961381D01*
X15743333Y-12961381D02*
X15733810Y-12923286D01*
X15733810Y-12923286D02*
X15733810Y-12875667D01*
X15733810Y-12875667D02*
X15743333Y-12837571D01*
X15743333Y-12837571D02*
X15752857Y-12818524D01*
X15752857Y-12818524D02*
X15762381Y-12809000D01*
X15762381Y-12809000D02*
X15781429Y-12799476D01*
X16029048Y-12799476D02*
X15933810Y-12799476D01*
X15933810Y-12799476D02*
X15924286Y-12894714D01*
X15924286Y-12894714D02*
X15933810Y-12885190D01*
X15933810Y-12885190D02*
X15952857Y-12875667D01*
X15952857Y-12875667D02*
X16000476Y-12875667D01*
X16000476Y-12875667D02*
X16019524Y-12885190D01*
X16019524Y-12885190D02*
X16029048Y-12894714D01*
X16029048Y-12894714D02*
X16038571Y-12913762D01*
X16038571Y-12913762D02*
X16038571Y-12961381D01*
X16038571Y-12961381D02*
X16029048Y-12980428D01*
X16029048Y-12980428D02*
X16019524Y-12989952D01*
X16019524Y-12989952D02*
X16000476Y-12999476D01*
X16000476Y-12999476D02*
X15952857Y-12999476D01*
X15952857Y-12999476D02*
X15933810Y-12989952D01*
X15933810Y-12989952D02*
X15924286Y-12980428D01*
X16133810Y-12999476D02*
X16171905Y-12999476D01*
X16171905Y-12999476D02*
X16190952Y-12989952D01*
X16190952Y-12989952D02*
X16200476Y-12980428D01*
X16200476Y-12980428D02*
X16219524Y-12951857D01*
X16219524Y-12951857D02*
X16229048Y-12913762D01*
X16229048Y-12913762D02*
X16229048Y-12837571D01*
X16229048Y-12837571D02*
X16219524Y-12818524D01*
X16219524Y-12818524D02*
X16210000Y-12809000D01*
X16210000Y-12809000D02*
X16190952Y-12799476D01*
X16190952Y-12799476D02*
X16152857Y-12799476D01*
X16152857Y-12799476D02*
X16133810Y-12809000D01*
X16133810Y-12809000D02*
X16124286Y-12818524D01*
X16124286Y-12818524D02*
X16114762Y-12837571D01*
X16114762Y-12837571D02*
X16114762Y-12885190D01*
X16114762Y-12885190D02*
X16124286Y-12904238D01*
X16124286Y-12904238D02*
X16133810Y-12913762D01*
X16133810Y-12913762D02*
X16152857Y-12923286D01*
X16152857Y-12923286D02*
X16190952Y-12923286D01*
X16190952Y-12923286D02*
X16210000Y-12913762D01*
X16210000Y-12913762D02*
X16219524Y-12904238D01*
X16219524Y-12904238D02*
X16229048Y-12885190D01*
X16419524Y-12999476D02*
X16305238Y-12999476D01*
X16362381Y-12999476D02*
X16362381Y-12799476D01*
X16362381Y-12799476D02*
X16343333Y-12828048D01*
X16343333Y-12828048D02*
X16324286Y-12847095D01*
X16324286Y-12847095D02*
X16305238Y-12856619D01*
X16495714Y-12799476D02*
X16495714Y-12837571D01*
X16571905Y-12799476D02*
X16571905Y-12837571D01*
X16834762Y-13075667D02*
X16825238Y-13066143D01*
X16825238Y-13066143D02*
X16806191Y-13037571D01*
X16806191Y-13037571D02*
X16796667Y-13018524D01*
X16796667Y-13018524D02*
X16787143Y-12989952D01*
X16787143Y-12989952D02*
X16777619Y-12942333D01*
X16777619Y-12942333D02*
X16777619Y-12904238D01*
X16777619Y-12904238D02*
X16787143Y-12856619D01*
X16787143Y-12856619D02*
X16796667Y-12828048D01*
X16796667Y-12828048D02*
X16806191Y-12809000D01*
X16806191Y-12809000D02*
X16825238Y-12780428D01*
X16825238Y-12780428D02*
X16834762Y-12770905D01*
X16901429Y-12818524D02*
X16910953Y-12809000D01*
X16910953Y-12809000D02*
X16930000Y-12799476D01*
X16930000Y-12799476D02*
X16977619Y-12799476D01*
X16977619Y-12799476D02*
X16996667Y-12809000D01*
X16996667Y-12809000D02*
X17006191Y-12818524D01*
X17006191Y-12818524D02*
X17015714Y-12837571D01*
X17015714Y-12837571D02*
X17015714Y-12856619D01*
X17015714Y-12856619D02*
X17006191Y-12885190D01*
X17006191Y-12885190D02*
X16891905Y-12999476D01*
X16891905Y-12999476D02*
X17015714Y-12999476D01*
X17221429Y-12999476D02*
X17221429Y-12799476D01*
X17307143Y-12999476D02*
X17307143Y-12894714D01*
X17307143Y-12894714D02*
X17297619Y-12875667D01*
X17297619Y-12875667D02*
X17278572Y-12866143D01*
X17278572Y-12866143D02*
X17250000Y-12866143D01*
X17250000Y-12866143D02*
X17230953Y-12875667D01*
X17230953Y-12875667D02*
X17221429Y-12885190D01*
X17430953Y-12999476D02*
X17411905Y-12989952D01*
X17411905Y-12989952D02*
X17402381Y-12980428D01*
X17402381Y-12980428D02*
X17392857Y-12961381D01*
X17392857Y-12961381D02*
X17392857Y-12904238D01*
X17392857Y-12904238D02*
X17402381Y-12885190D01*
X17402381Y-12885190D02*
X17411905Y-12875667D01*
X17411905Y-12875667D02*
X17430953Y-12866143D01*
X17430953Y-12866143D02*
X17459524Y-12866143D01*
X17459524Y-12866143D02*
X17478572Y-12875667D01*
X17478572Y-12875667D02*
X17488095Y-12885190D01*
X17488095Y-12885190D02*
X17497619Y-12904238D01*
X17497619Y-12904238D02*
X17497619Y-12961381D01*
X17497619Y-12961381D02*
X17488095Y-12980428D01*
X17488095Y-12980428D02*
X17478572Y-12989952D01*
X17478572Y-12989952D02*
X17459524Y-12999476D01*
X17459524Y-12999476D02*
X17430953Y-12999476D01*
X17611905Y-12999476D02*
X17592857Y-12989952D01*
X17592857Y-12989952D02*
X17583334Y-12970905D01*
X17583334Y-12970905D02*
X17583334Y-12799476D01*
X17764286Y-12989952D02*
X17745238Y-12999476D01*
X17745238Y-12999476D02*
X17707143Y-12999476D01*
X17707143Y-12999476D02*
X17688095Y-12989952D01*
X17688095Y-12989952D02*
X17678572Y-12970905D01*
X17678572Y-12970905D02*
X17678572Y-12894714D01*
X17678572Y-12894714D02*
X17688095Y-12875667D01*
X17688095Y-12875667D02*
X17707143Y-12866143D01*
X17707143Y-12866143D02*
X17745238Y-12866143D01*
X17745238Y-12866143D02*
X17764286Y-12875667D01*
X17764286Y-12875667D02*
X17773810Y-12894714D01*
X17773810Y-12894714D02*
X17773810Y-12913762D01*
X17773810Y-12913762D02*
X17678572Y-12932809D01*
X17850000Y-12989952D02*
X17869048Y-12999476D01*
X17869048Y-12999476D02*
X17907143Y-12999476D01*
X17907143Y-12999476D02*
X17926191Y-12989952D01*
X17926191Y-12989952D02*
X17935715Y-12970905D01*
X17935715Y-12970905D02*
X17935715Y-12961381D01*
X17935715Y-12961381D02*
X17926191Y-12942333D01*
X17926191Y-12942333D02*
X17907143Y-12932809D01*
X17907143Y-12932809D02*
X17878572Y-12932809D01*
X17878572Y-12932809D02*
X17859524Y-12923286D01*
X17859524Y-12923286D02*
X17850000Y-12904238D01*
X17850000Y-12904238D02*
X17850000Y-12894714D01*
X17850000Y-12894714D02*
X17859524Y-12875667D01*
X17859524Y-12875667D02*
X17878572Y-12866143D01*
X17878572Y-12866143D02*
X17907143Y-12866143D01*
X17907143Y-12866143D02*
X17926191Y-12875667D01*
X18002381Y-13075667D02*
X18011905Y-13066143D01*
X18011905Y-13066143D02*
X18030953Y-13037571D01*
X18030953Y-13037571D02*
X18040476Y-13018524D01*
X18040476Y-13018524D02*
X18050000Y-12989952D01*
X18050000Y-12989952D02*
X18059524Y-12942333D01*
X18059524Y-12942333D02*
X18059524Y-12904238D01*
X18059524Y-12904238D02*
X18050000Y-12856619D01*
X18050000Y-12856619D02*
X18040476Y-12828048D01*
X18040476Y-12828048D02*
X18030953Y-12809000D01*
X18030953Y-12809000D02*
X18011905Y-12780428D01*
X18011905Y-12780428D02*
X18002381Y-12770905D01*
M02*
