G04 #@! TF.GenerationSoftware,KiCad,Pcbnew,(7.0.0)*
G04 #@! TF.CreationDate,2023-04-23T17:00:46-07:00*
G04 #@! TF.ProjectId,boostdriver-al8853,626f6f73-7464-4726-9976-65722d616c38,1*
G04 #@! TF.SameCoordinates,Original*
G04 #@! TF.FileFunction,Legend,Top*
G04 #@! TF.FilePolarity,Positive*
%FSLAX46Y46*%
G04 Gerber Fmt 4.6, Leading zero omitted, Abs format (unit mm)*
G04 Created by KiCad (PCBNEW (7.0.0)) date 2023-04-23 17:00:46*
%MOMM*%
%LPD*%
G01*
G04 APERTURE LIST*
G04 Aperture macros list*
%AMRoundRect*
0 Rectangle with rounded corners*
0 $1 Rounding radius*
0 $2 $3 $4 $5 $6 $7 $8 $9 X,Y pos of 4 corners*
0 Add a 4 corners polygon primitive as box body*
4,1,4,$2,$3,$4,$5,$6,$7,$8,$9,$2,$3,0*
0 Add four circle primitives for the rounded corners*
1,1,$1+$1,$2,$3*
1,1,$1+$1,$4,$5*
1,1,$1+$1,$6,$7*
1,1,$1+$1,$8,$9*
0 Add four rect primitives between the rounded corners*
20,1,$1+$1,$2,$3,$4,$5,0*
20,1,$1+$1,$4,$5,$6,$7,0*
20,1,$1+$1,$6,$7,$8,$9,0*
20,1,$1+$1,$8,$9,$2,$3,0*%
%AMFreePoly0*
4,1,43,1.580355,1.210355,1.595000,1.175000,1.595000,0.775000,1.580355,0.739645,1.545000,0.725000,0.975000,0.725000,0.975000,0.575000,1.545000,0.575000,1.580355,0.560355,1.595000,0.525000,1.595000,0.125000,1.580355,0.089645,1.545000,0.075000,0.975000,0.075000,0.975000,-0.075000,1.545000,-0.075000,1.580355,-0.089645,1.595000,-0.125000,1.595000,-0.525000,1.580355,-0.560355,
1.545000,-0.575000,0.975000,-0.575000,0.975000,-0.725000,1.545000,-0.725000,1.580355,-0.739645,1.595000,-0.775000,1.595000,-1.175000,1.580355,-1.210355,1.545000,-1.225000,0.925000,-1.225000,0.889645,-1.210355,0.875000,-1.175000,-0.925000,-1.175000,-0.960355,-1.160355,-0.975000,-1.125000,-0.975000,1.125000,-0.960355,1.160355,-0.925000,1.175000,0.875000,1.175000,0.889645,1.210355,
0.925000,1.225000,1.545000,1.225000,1.580355,1.210355,1.580355,1.210355,$1*%
G04 Aperture macros list end*
%ADD10C,0.300000*%
%ADD11C,0.120000*%
%ADD12C,2.275000*%
%ADD13R,4.600000X2.000000*%
%ADD14O,4.200000X2.000000*%
%ADD15O,2.000000X4.200000*%
%ADD16FreePoly0,270.000000*%
%ADD17RoundRect,0.050000X-0.200000X0.415000X-0.200000X-0.415000X0.200000X-0.415000X0.200000X0.415000X0*%
%ADD18RoundRect,0.250000X-0.625000X0.312500X-0.625000X-0.312500X0.625000X-0.312500X0.625000X0.312500X0*%
%ADD19RoundRect,0.225000X0.250000X-0.225000X0.250000X0.225000X-0.250000X0.225000X-0.250000X-0.225000X0*%
%ADD20RoundRect,0.200000X0.200000X0.275000X-0.200000X0.275000X-0.200000X-0.275000X0.200000X-0.275000X0*%
%ADD21C,2.200000*%
%ADD22RoundRect,0.050000X-0.415000X-0.200000X0.415000X-0.200000X0.415000X0.200000X-0.415000X0.200000X0*%
%ADD23FreePoly0,0.000000*%
%ADD24RoundRect,0.200000X-0.275000X0.200000X-0.275000X-0.200000X0.275000X-0.200000X0.275000X0.200000X0*%
%ADD25RoundRect,0.250000X0.312500X0.625000X-0.312500X0.625000X-0.312500X-0.625000X0.312500X-0.625000X0*%
%ADD26RoundRect,0.250000X-1.400000X-1.000000X1.400000X-1.000000X1.400000X1.000000X-1.400000X1.000000X0*%
%ADD27C,4.000000*%
%ADD28C,1.800000*%
%ADD29RoundRect,0.200000X0.275000X-0.200000X0.275000X0.200000X-0.275000X0.200000X-0.275000X-0.200000X0*%
%ADD30RoundRect,0.200000X-0.200000X-0.275000X0.200000X-0.275000X0.200000X0.275000X-0.200000X0.275000X0*%
%ADD31RoundRect,0.225000X-0.250000X0.225000X-0.250000X-0.225000X0.250000X-0.225000X0.250000X0.225000X0*%
%ADD32RoundRect,0.250000X0.325000X1.100000X-0.325000X1.100000X-0.325000X-1.100000X0.325000X-1.100000X0*%
%ADD33RoundRect,0.250000X1.100000X-0.325000X1.100000X0.325000X-1.100000X0.325000X-1.100000X-0.325000X0*%
%ADD34RoundRect,0.328000X1.722000X2.472000X-1.722000X2.472000X-1.722000X-2.472000X1.722000X-2.472000X0*%
%ADD35RoundRect,0.225000X-0.225000X-0.250000X0.225000X-0.250000X0.225000X0.250000X-0.225000X0.250000X0*%
%ADD36C,0.650000*%
%ADD37R,0.600000X1.150000*%
%ADD38R,0.300000X1.150000*%
%ADD39O,1.000000X2.100000*%
%ADD40O,1.000000X1.800000*%
%ADD41RoundRect,0.250000X0.250000X0.475000X-0.250000X0.475000X-0.250000X-0.475000X0.250000X-0.475000X0*%
%ADD42RoundRect,0.100000X0.100000X-0.637500X0.100000X0.637500X-0.100000X0.637500X-0.100000X-0.637500X0*%
%ADD43RoundRect,0.600000X-1.400000X-1.400000X1.400000X-1.400000X1.400000X1.400000X-1.400000X1.400000X0*%
%ADD44RoundRect,0.100000X0.637500X0.100000X-0.637500X0.100000X-0.637500X-0.100000X0.637500X-0.100000X0*%
%ADD45RoundRect,0.250000X0.475000X-0.250000X0.475000X0.250000X-0.475000X0.250000X-0.475000X-0.250000X0*%
%ADD46RoundRect,0.150000X0.725000X0.150000X-0.725000X0.150000X-0.725000X-0.150000X0.725000X-0.150000X0*%
%ADD47R,1.700000X1.700000*%
%ADD48O,1.700000X1.700000*%
%ADD49RoundRect,0.250000X-1.100000X0.325000X-1.100000X-0.325000X1.100000X-0.325000X1.100000X0.325000X0*%
G04 APERTURE END LIST*
D10*
G36*
X143969190Y-67070840D02*
G01*
X143171249Y-67070840D01*
X143171249Y-67301650D01*
X143969190Y-67301650D01*
X143969190Y-67070840D01*
G37*
G36*
X160964619Y-90636894D02*
G01*
X161030205Y-90636369D01*
X161093063Y-90634751D01*
X161153275Y-90631981D01*
X161210922Y-90627995D01*
X161266084Y-90622734D01*
X161318842Y-90616135D01*
X161369276Y-90608137D01*
X161417468Y-90598678D01*
X161463499Y-90587697D01*
X161507448Y-90575133D01*
X161549398Y-90560924D01*
X161589428Y-90545008D01*
X161627619Y-90527325D01*
X161664053Y-90507813D01*
X161698809Y-90486410D01*
X161731969Y-90463054D01*
X161763614Y-90437685D01*
X161793824Y-90410242D01*
X161822679Y-90380661D01*
X161850262Y-90348883D01*
X161876652Y-90314846D01*
X161901930Y-90278487D01*
X161926178Y-90239747D01*
X161949475Y-90198562D01*
X161971903Y-90154873D01*
X161993542Y-90108617D01*
X162014474Y-90059732D01*
X162034778Y-90008159D01*
X162054536Y-89953834D01*
X162073828Y-89896697D01*
X162092736Y-89836686D01*
X162111339Y-89773740D01*
X162695324Y-87729427D01*
X162161898Y-87729427D01*
X161599162Y-89706329D01*
X161589895Y-89737381D01*
X161580210Y-89767212D01*
X161570082Y-89795837D01*
X161559485Y-89823272D01*
X161536773Y-89874633D01*
X161511864Y-89921419D01*
X161484547Y-89963753D01*
X161454610Y-90001757D01*
X161421841Y-90035557D01*
X161386030Y-90065274D01*
X161346964Y-90091033D01*
X161304432Y-90112957D01*
X161258223Y-90131170D01*
X161208125Y-90145794D01*
X161153928Y-90156954D01*
X161095418Y-90164772D01*
X161064481Y-90167467D01*
X161032386Y-90169373D01*
X160999108Y-90170505D01*
X160964619Y-90170879D01*
X160918286Y-90169910D01*
X160876760Y-90166869D01*
X160839941Y-90161557D01*
X160807724Y-90153774D01*
X160780006Y-90143321D01*
X160746640Y-90122197D01*
X160722819Y-90093942D01*
X160708194Y-90057882D01*
X160702417Y-90013342D01*
X160703310Y-89978606D01*
X160707878Y-89939602D01*
X160716018Y-89896131D01*
X160727627Y-89847993D01*
X160742602Y-89794989D01*
X160217236Y-89794989D01*
X160198674Y-89855618D01*
X160182441Y-89913481D01*
X160168576Y-89968634D01*
X160157117Y-90021132D01*
X160148099Y-90071029D01*
X160141561Y-90118382D01*
X160137541Y-90163244D01*
X160136075Y-90205672D01*
X160137201Y-90245720D01*
X160140957Y-90283444D01*
X160147380Y-90318899D01*
X160156507Y-90352139D01*
X160168376Y-90383220D01*
X160183024Y-90412198D01*
X160200489Y-90439127D01*
X160220808Y-90464062D01*
X160244019Y-90487059D01*
X160270158Y-90508172D01*
X160299264Y-90527457D01*
X160331374Y-90544970D01*
X160366525Y-90560764D01*
X160404755Y-90574896D01*
X160446101Y-90587420D01*
X160490601Y-90598392D01*
X160538292Y-90607866D01*
X160589211Y-90615898D01*
X160643396Y-90622543D01*
X160700884Y-90627857D01*
X160761713Y-90631893D01*
X160825920Y-90634708D01*
X160893543Y-90636357D01*
X160964619Y-90636894D01*
G37*
G36*
X160444050Y-66629005D02*
G01*
X160196388Y-66629005D01*
X160196388Y-67082564D01*
X159772138Y-67082564D01*
X159772138Y-67305314D01*
X160196388Y-67305314D01*
X160196388Y-67746050D01*
X160444050Y-67746050D01*
X160444050Y-67305314D01*
X160868300Y-67305314D01*
X160868300Y-67082564D01*
X160444050Y-67082564D01*
X160444050Y-66629005D01*
G37*
D11*
X156200000Y-98150000D02*
X158200000Y-98150000D01*
X163400000Y-98150000D02*
X165400000Y-98150000D01*
X165400000Y-98150000D02*
X165400000Y-99450000D01*
X165400000Y-104050000D02*
X165400000Y-112650000D01*
X165400000Y-112650000D02*
X156200000Y-112650000D01*
X155280000Y-104045000D02*
X155575000Y-104045000D01*
X155280000Y-101205000D02*
X155280000Y-104045000D01*
X158820000Y-104045000D02*
X158820000Y-101205000D01*
X155575000Y-101205000D02*
X155280000Y-101205000D01*
X158525000Y-100475000D02*
X158525000Y-101205000D01*
X158525000Y-104045000D02*
X158820000Y-104045000D01*
X158820000Y-101205000D02*
X158525000Y-101205000D01*
X147540001Y-69552936D02*
X147540001Y-71007064D01*
X145720001Y-69552936D02*
X145720001Y-71007064D01*
X136740000Y-98490580D02*
X136740000Y-98209420D01*
X137760000Y-98490580D02*
X137760000Y-98209420D01*
X136237258Y-80122500D02*
X135762742Y-80122500D01*
X136237258Y-79077500D02*
X135762742Y-79077500D01*
X164690000Y-78735000D02*
X165420000Y-78735000D01*
X165420000Y-78440000D02*
X165420000Y-78735000D01*
X165420000Y-81685000D02*
X165420000Y-81980000D01*
X165420000Y-81980000D02*
X168260000Y-81980000D01*
X168260000Y-78440000D02*
X165420000Y-78440000D01*
X168260000Y-78735000D02*
X168260000Y-78440000D01*
X168260000Y-81980000D02*
X168260000Y-81685000D01*
X140640001Y-69552936D02*
X140640001Y-71007064D01*
X138820001Y-69552936D02*
X138820001Y-71007064D01*
X143912258Y-100822500D02*
X143437742Y-100822500D01*
X143912258Y-99777500D02*
X143437742Y-99777500D01*
X136222500Y-101562742D02*
X136222500Y-102037258D01*
X135177500Y-101562742D02*
X135177500Y-102037258D01*
X141072500Y-78612742D02*
X141072500Y-79087258D01*
X140027500Y-78612742D02*
X140027500Y-79087258D01*
X160297065Y-80740002D02*
X158842937Y-80740002D01*
X160297065Y-78920002D02*
X158842937Y-78920002D01*
X169775000Y-66890000D02*
X169775000Y-75400000D01*
X163275000Y-66890000D02*
X169775000Y-66890000D01*
X163275000Y-66890000D02*
X163275000Y-75400000D01*
X142940001Y-69552937D02*
X142940001Y-71007065D01*
X141120001Y-69552937D02*
X141120001Y-71007065D01*
X135530000Y-93920000D02*
X137129000Y-93920000D01*
X135530000Y-93920000D02*
X135530000Y-90055000D01*
X138871000Y-93920000D02*
X139630000Y-93920000D01*
X141371000Y-93920000D02*
X142130000Y-93920000D01*
X143870000Y-93920000D02*
X145470000Y-93920000D01*
X145470000Y-93920000D02*
X145470000Y-90055000D01*
X135530000Y-85545000D02*
X135530000Y-81680000D01*
X145470000Y-85545000D02*
X145470000Y-81680000D01*
X135530000Y-81680000D02*
X145470000Y-81680000D01*
X145240001Y-69552937D02*
X145240001Y-71007065D01*
X143420001Y-69552937D02*
X143420001Y-71007065D01*
X143912258Y-80122500D02*
X143437742Y-80122500D01*
X143912258Y-79077500D02*
X143437742Y-79077500D01*
X148787500Y-72032258D02*
X148787500Y-71557742D01*
X149832500Y-72032258D02*
X149832500Y-71557742D01*
X143912258Y-99172500D02*
X143437742Y-99172500D01*
X143912258Y-98127500D02*
X143437742Y-98127500D01*
X154767500Y-76417258D02*
X154767500Y-75942742D01*
X155812500Y-76417258D02*
X155812500Y-75942742D01*
X135762742Y-75927500D02*
X136237258Y-75927500D01*
X135762742Y-76972500D02*
X136237258Y-76972500D01*
X153865000Y-99259420D02*
X153865000Y-99540580D01*
X154885000Y-99259420D02*
X154885000Y-99540580D01*
X151451252Y-95440000D02*
X150028748Y-95440000D01*
X151451252Y-92720000D02*
X150028748Y-92720000D01*
X155299999Y-65116253D02*
X155299999Y-63693749D01*
X158019999Y-65116253D02*
X158019999Y-63693749D01*
X139077500Y-107937258D02*
X139077500Y-107462742D01*
X140122500Y-107937258D02*
X140122500Y-107462742D01*
X168585000Y-95760000D02*
X168585000Y-92210000D01*
X168585000Y-95760000D02*
X154615000Y-95760000D01*
X168585000Y-82640000D02*
X168585000Y-86190000D01*
X168585000Y-82640000D02*
X154615000Y-82640000D01*
X166600000Y-94200000D02*
X166600000Y-92200000D01*
X166600000Y-94200000D02*
X156600000Y-94200000D01*
X166600000Y-86200000D02*
X166600000Y-84200000D01*
X166600000Y-84200000D02*
X156600000Y-84200000D01*
X164600000Y-92200000D02*
X158600000Y-92200000D01*
X164600000Y-86200000D02*
X158600000Y-86200000D01*
X156600000Y-94200000D02*
X156600000Y-92200000D01*
X156600000Y-84200000D02*
X156600000Y-86200000D01*
X154615000Y-95760000D02*
X154615000Y-92210000D01*
X154615000Y-82640000D02*
X154615000Y-86190000D01*
X136727500Y-105487258D02*
X136727500Y-105012742D01*
X137772500Y-105487258D02*
X137772500Y-105012742D01*
X136222500Y-105012742D02*
X136222500Y-105487258D01*
X135177500Y-105012742D02*
X135177500Y-105487258D01*
X153270000Y-76320580D02*
X153270000Y-76039420D01*
X154290000Y-76320580D02*
X154290000Y-76039420D01*
X152049999Y-65116253D02*
X152049999Y-63693749D01*
X154769999Y-65116253D02*
X154769999Y-63693749D01*
X143534420Y-75940000D02*
X143815580Y-75940000D01*
X143534420Y-76960000D02*
X143815580Y-76960000D01*
X143430000Y-108600000D02*
X143430000Y-106800000D01*
X143430000Y-110700000D02*
X143430000Y-111850000D01*
X152770000Y-108600000D02*
X152770000Y-106800000D01*
X152770000Y-110700000D02*
X152770000Y-111850000D01*
X160297064Y-78440003D02*
X158842936Y-78440003D01*
X160297064Y-76620003D02*
X158842936Y-76620003D01*
X137772500Y-101562742D02*
X137772500Y-102037258D01*
X136727500Y-101562742D02*
X136727500Y-102037258D01*
X151261252Y-82135000D02*
X150738748Y-82135000D01*
X151261252Y-80665000D02*
X150738748Y-80665000D01*
X148797500Y-68992258D02*
X148797500Y-68517742D01*
X149842500Y-68992258D02*
X149842500Y-68517742D01*
X138490000Y-101600000D02*
X138490000Y-105200000D01*
X138490000Y-101600000D02*
X138490000Y-99400000D01*
X141710000Y-101600000D02*
X141710000Y-103800000D01*
X141710000Y-101600000D02*
X141710000Y-99400000D01*
X138427500Y-79087258D02*
X138427500Y-78612742D01*
X139472500Y-79087258D02*
X139472500Y-78612742D01*
X151502500Y-68517742D02*
X151502500Y-68992258D01*
X150457500Y-68517742D02*
X150457500Y-68992258D01*
X149450000Y-101685000D02*
X153050000Y-101685000D01*
X149450000Y-101685000D02*
X147250000Y-101685000D01*
X149450000Y-96215000D02*
X151650000Y-96215000D01*
X149450000Y-96215000D02*
X147250000Y-96215000D01*
X158574999Y-64666253D02*
X158574999Y-64143749D01*
X160044999Y-64666253D02*
X160044999Y-64143749D01*
X149110000Y-79960000D02*
X152560000Y-79960000D01*
X149110000Y-79960000D02*
X147160000Y-79960000D01*
X149110000Y-74840000D02*
X151060000Y-74840000D01*
X149110000Y-74840000D02*
X147160000Y-74840000D01*
X143534420Y-77515000D02*
X143815580Y-77515000D01*
X143534420Y-78535000D02*
X143815580Y-78535000D01*
X145540000Y-65111252D02*
X145540000Y-63688748D01*
X148260000Y-65111252D02*
X148260000Y-63688748D01*
X151451252Y-92190000D02*
X150028748Y-92190000D01*
X151451252Y-89470000D02*
X150028748Y-89470000D01*
X148800000Y-65111252D02*
X148800000Y-63688748D01*
X151520000Y-65111252D02*
X151520000Y-63688748D01*
X143437742Y-96477500D02*
X143912258Y-96477500D01*
X143437742Y-97522500D02*
X143912258Y-97522500D01*
X134670000Y-69895000D02*
X136000000Y-69895000D01*
X134670000Y-71225000D02*
X134670000Y-69895000D01*
X134670000Y-72495000D02*
X134670000Y-75095000D01*
X134670000Y-72495000D02*
X137330000Y-72495000D01*
X134670000Y-75095000D02*
X137330000Y-75095000D01*
X137330000Y-72495000D02*
X137330000Y-75095000D01*
X162009999Y-69568749D02*
X162009999Y-70991253D01*
X159289999Y-69568749D02*
X159289999Y-70991253D01*
X143432742Y-74352500D02*
X143907258Y-74352500D01*
X143432742Y-75397500D02*
X143907258Y-75397500D01*
X141610000Y-107559420D02*
X141610000Y-107840580D01*
X140590000Y-107559420D02*
X140590000Y-107840580D01*
X151451252Y-88940000D02*
X150028748Y-88940000D01*
X151451252Y-86220000D02*
X150028748Y-86220000D01*
X155509999Y-69568748D02*
X155509999Y-70991252D01*
X152789999Y-69568748D02*
X152789999Y-70991252D01*
X151451252Y-85690000D02*
X150028748Y-85690000D01*
X151451252Y-82970000D02*
X150028748Y-82970000D01*
X158760000Y-69568748D02*
X158760000Y-70991252D01*
X156040000Y-69568748D02*
X156040000Y-70991252D01*
X136237258Y-78562500D02*
X135762742Y-78562500D01*
X136237258Y-77517500D02*
X135762742Y-77517500D01*
%LPC*%
D12*
X169137500Y-110000000D02*
G75*
G03*
X169137500Y-110000000I-1137500J0D01*
G01*
X137137500Y-110000000D02*
G75*
G03*
X137137500Y-110000000I-1137500J0D01*
G01*
X137137500Y-64000000D02*
G75*
G03*
X137137500Y-64000000I-1137500J0D01*
G01*
X169137500Y-64000000D02*
G75*
G03*
X169137500Y-64000000I-1137500J0D01*
G01*
D13*
X160799999Y-98849999D03*
D14*
X160799999Y-105149999D03*
D15*
X165599999Y-101749999D03*
D16*
X157050000Y-102830000D03*
D17*
X156075000Y-100890000D03*
X156725000Y-100890000D03*
X157375000Y-100890000D03*
X158025000Y-100890000D03*
D18*
X146630001Y-68817500D03*
X146630001Y-71742500D03*
D19*
X137250000Y-99125000D03*
X137250000Y-97575000D03*
D20*
X136825000Y-79600000D03*
X135175000Y-79600000D03*
D21*
X168000000Y-110000000D03*
D22*
X165105000Y-79235000D03*
X165105000Y-79885000D03*
X165105000Y-80535000D03*
X165105000Y-81185000D03*
D23*
X167045000Y-80210000D03*
D18*
X139730001Y-68817500D03*
X139730001Y-71742500D03*
D20*
X144500000Y-100300000D03*
X142850000Y-100300000D03*
D24*
X135700000Y-100975000D03*
X135700000Y-102625000D03*
X140550000Y-78025000D03*
X140550000Y-79675000D03*
D25*
X161032501Y-79830002D03*
X158107501Y-79830002D03*
D26*
X166525000Y-68400000D03*
X166525000Y-75200000D03*
D18*
X142030001Y-68817501D03*
X142030001Y-71742501D03*
D27*
X136100000Y-87800000D03*
X144900000Y-87800000D03*
D28*
X143000000Y-94800000D03*
X140500000Y-94800000D03*
X138000000Y-94800000D03*
D18*
X144330001Y-68817501D03*
X144330001Y-71742501D03*
D20*
X144500000Y-79600000D03*
X142850000Y-79600000D03*
D29*
X149310000Y-72620000D03*
X149310000Y-70970000D03*
D20*
X144500000Y-98650000D03*
X142850000Y-98650000D03*
D29*
X155290000Y-77005000D03*
X155290000Y-75355000D03*
D30*
X135175000Y-76450000D03*
X136825000Y-76450000D03*
D31*
X154375000Y-100175000D03*
X154375000Y-98625000D03*
D32*
X152215000Y-94080000D03*
X149265000Y-94080000D03*
D33*
X156659999Y-65880001D03*
X156659999Y-62930001D03*
D29*
X139600000Y-108525000D03*
X139600000Y-106875000D03*
D34*
X166800000Y-89200000D03*
X156400000Y-89200000D03*
D29*
X137250000Y-106075000D03*
X137250000Y-104425000D03*
D24*
X135700000Y-104425000D03*
X135700000Y-106075000D03*
D19*
X153780000Y-76955000D03*
X153780000Y-75405000D03*
D33*
X153409999Y-65880001D03*
X153409999Y-62930001D03*
D35*
X142900000Y-76450000D03*
X144450000Y-76450000D03*
D36*
X145210000Y-105995000D03*
X150990000Y-105995000D03*
D37*
X144899999Y-104919999D03*
X145699999Y-104919999D03*
D38*
X146849999Y-104919999D03*
X147849999Y-104919999D03*
X148349999Y-104919999D03*
X149349999Y-104919999D03*
D37*
X150499999Y-104919999D03*
X151299999Y-104919999D03*
X151299999Y-104919999D03*
X150499999Y-104919999D03*
D38*
X149849999Y-104919999D03*
X148849999Y-104919999D03*
X147349999Y-104919999D03*
X146349999Y-104919999D03*
D37*
X145699999Y-104919999D03*
X144899999Y-104919999D03*
D39*
X143779999Y-105494999D03*
D40*
X143779999Y-109674999D03*
D39*
X152419999Y-105494999D03*
D40*
X152419999Y-109674999D03*
D25*
X161032500Y-77530003D03*
X158107500Y-77530003D03*
D24*
X137250000Y-100975000D03*
X137250000Y-102625000D03*
D41*
X151950000Y-81400000D03*
X150050000Y-81400000D03*
D29*
X149320000Y-69580000D03*
X149320000Y-67930000D03*
D42*
X139125000Y-104462500D03*
X139775000Y-104462500D03*
X140425000Y-104462500D03*
X141075000Y-104462500D03*
X141075000Y-98737500D03*
X140425000Y-98737500D03*
X139775000Y-98737500D03*
X139125000Y-98737500D03*
D29*
X138950000Y-79675000D03*
X138950000Y-78025000D03*
D24*
X150980000Y-67930000D03*
X150980000Y-69580000D03*
D43*
X141000000Y-64000000D03*
D44*
X152312500Y-101225000D03*
X152312500Y-100575000D03*
X152312500Y-99925000D03*
X152312500Y-99275000D03*
X152312500Y-98625000D03*
X152312500Y-97975000D03*
X152312500Y-97325000D03*
X152312500Y-96675000D03*
X146587500Y-96675000D03*
X146587500Y-97325000D03*
X146587500Y-97975000D03*
X146587500Y-98625000D03*
X146587500Y-99275000D03*
X146587500Y-99925000D03*
X146587500Y-100575000D03*
X146587500Y-101225000D03*
D45*
X159309999Y-65355001D03*
X159309999Y-63455001D03*
D46*
X151685000Y-79305000D03*
X151685000Y-78035000D03*
X151685000Y-76765000D03*
X151685000Y-75495000D03*
X146535000Y-75495000D03*
X146535000Y-76765000D03*
X146535000Y-78035000D03*
X146535000Y-79305000D03*
D35*
X142900000Y-78025000D03*
X144450000Y-78025000D03*
D21*
X136000000Y-110000000D03*
D33*
X146900000Y-65875000D03*
X146900000Y-62925000D03*
D32*
X152215000Y-90830000D03*
X149265000Y-90830000D03*
D33*
X150160000Y-65875000D03*
X150160000Y-62925000D03*
D21*
X136000000Y-64000000D03*
D30*
X142850000Y-97000000D03*
X144500000Y-97000000D03*
D47*
X135999999Y-71224999D03*
D48*
X135999999Y-73764999D03*
D21*
X168000000Y-64000000D03*
D49*
X160649999Y-68805001D03*
X160649999Y-71755001D03*
D30*
X142845000Y-74875000D03*
X144495000Y-74875000D03*
D31*
X141100000Y-106925000D03*
X141100000Y-108475000D03*
D32*
X152215000Y-87580000D03*
X149265000Y-87580000D03*
D49*
X154149999Y-68805000D03*
X154149999Y-71755000D03*
D43*
X163000000Y-64000000D03*
D32*
X152215000Y-84330000D03*
X149265000Y-84330000D03*
D49*
X157400000Y-68805000D03*
X157400000Y-71755000D03*
D20*
X136825000Y-78040000D03*
X135175000Y-78040000D03*
M02*
